<?xml version="1.0" standalone="no"?>
<!DOCTYPE svg PUBLIC "-//W3C//DTD SVG 1.1//EN" "http://www.w3.org/Graphics/SVG/1.1/DTD/svg11.dtd" >
<svg xmlns="http://www.w3.org/2000/svg">
<metadata></metadata>
<defs>
<font id="equiplight" horiz-adv-x="576" >
<font-face units-per-em="1000" ascent="750" descent="-250" />
<missing-glyph horiz-adv-x="218" />
<glyph unicode="&#xfb01;" horiz-adv-x="594" d="M177 0h-72v431h-78v63h78v57q0 96 42 140q44 49 127 49q50 0 73 -15v-67h-4q-23 17 -69 17q-54 0 -77 -33q-20 -26 -20 -92v-56h134v-63h-134v-431zM472 0h-73v494h73v-494zM483 656q0 -22 -13.5 -36t-34.5 -14t-34.5 13.5t-13.5 36.5q0 25 14.5 38t33.5 13t33.5 -13 t14.5 -38z" />
<glyph unicode="&#xfb02;" horiz-adv-x="572" d="M177 0h-72v431h-78v63h78v57q0 96 42 140q44 49 126 49q52 0 75 -15v-67h-4q-22 17 -71 17q-52 0 -76 -33q-20 -28 -20 -92v-56h121v-63h-121v-431zM471 0h-72v728h72v-728z" />
<glyph unicode="&#xfb03;" horiz-adv-x="913" d="M177 0h-72v431h-78v63h78v37q0 96 42 140q44 49 130 49q53 0 82 -20v-67h-4q-27 22 -78 22q-56 0 -80 -33q-20 -26 -20 -92v-36h120v-63h-120v-431zM496 0h-72v431h-75v63h75v57q0 96 42 140q44 49 126 49q52 0 74 -15v-67h-4q-24 17 -69 17q-54 0 -77 -33 q-20 -26 -20 -92v-56h134v-63h-134v-431zM791 0h-73v494h73v-494zM802 656q0 -22 -13.5 -36t-34.5 -14t-35 13.5t-14 36.5q0 24 15 37.5t34 13.5t33.5 -13t14.5 -38z" />
<glyph unicode="&#xfb04;" horiz-adv-x="891" d="M177 0h-72v431h-78v63h78v37q0 96 42 140q44 49 130 49q53 0 82 -20v-67h-4q-27 22 -78 22q-56 0 -80 -33q-20 -26 -20 -92v-36h120v-63h-120v-431zM496 0h-72v431h-78v63h78v57q0 96 42 140q44 49 126 49q52 0 75 -15v-67h-4q-22 17 -71 17q-52 0 -76 -33 q-20 -26 -20 -92v-56h121v-63h-121v-431zM790 0h-72v728h72v-728z" />
<glyph horiz-adv-x="0" />
<glyph horiz-adv-x="333" />
<glyph unicode=" "  horiz-adv-x="218" />
<glyph unicode="&#x09;" horiz-adv-x="218" />
<glyph unicode="&#xa0;" horiz-adv-x="218" />
<glyph unicode="!" horiz-adv-x="291" d="M181 211h-58q-14 404 -14 478h86q0 -75 -14 -478zM208 44q0 -24 -16 -39.5t-40 -15.5q-23 0 -39 15t-16 40q0 27 17 42t39 15t38.5 -15t16.5 -42z" />
<glyph unicode="&#x22;" horiz-adv-x="366" d="M114 426h-44l-19 279h81zM280 426h-44l-18 279h80z" />
<glyph unicode="#" horiz-adv-x="614" d="M189 -14h-52l32 227h-126v62h135l17 125h-128v62h137l31 218h52l-31 -218h135l31 218h52l-31 -218h121v-62h-130l-17 -125h123v-62h-132l-32 -227h-52l32 227h-135zM247 400l-17 -125h135l17 125h-135z" />
<glyph unicode="$" horiz-adv-x="560" d="M306 -112h-45v104q-58 2 -115.5 22.5t-92.5 53.5v89h4q37 -41 92 -66t112 -29v231l-60 20q-137 46 -137 171q0 76 50.5 125t146.5 58v101h45v-99q48 -1 98.5 -19t73.5 -41v-84h-5q-30 32 -75.5 51.5t-91.5 22.5v-236l47 -15q83 -27 120 -66t37 -103q0 -76 -49.5 -127.5 t-154.5 -58.5v-105zM430 169q0 39 -27.5 62.5t-96.5 47.5v-216q124 8 124 106zM142 490q0 -38 22.5 -64t86.5 -46l10 -3v222q-65 -6 -92 -36t-27 -73z" />
<glyph unicode="%" horiz-adv-x="859" d="M362 460q0 -100 -45 -158t-120 -58t-119.5 57.5t-44.5 156.5t46.5 157.5t119.5 58.5q76 0 119.5 -57t43.5 -157zM301 459q0 77 -27 120t-75 43t-76.5 -43t-28.5 -120t28.5 -119.5t75.5 -42.5q48 0 75.5 42.5t27.5 119.5zM286 -12h-52l337 694h51zM819 207 q0 -100 -44.5 -158t-119.5 -58t-119.5 57.5t-44.5 156.5t46.5 157.5t119.5 58.5q76 0 119 -57t43 -157zM759 206q0 77 -27.5 120t-75.5 43t-76 -43t-28 -120t28 -119.5t75 -42.5q49 0 76.5 42.5t27.5 119.5z" />
<glyph unicode="&#x26;" horiz-adv-x="701" d="M679 0h-104q-43 33 -67 56q-84 -70 -203 -70q-113 0 -183 58.5t-70 146.5q0 129 137 188q-45 61 -45 131q0 69 52.5 117.5t145.5 48.5q82 0 126 -35v-79h-4q-43 46 -125 46q-57 0 -87.5 -28t-30.5 -72q0 -51 45 -108q59 -72 238 -239q16 19 28.5 57t12.5 74q0 53 -11 82 h74q9 -26 9 -77q0 -110 -63 -186q55 -51 125 -107v-4zM454 103q-151 137 -228 224q-97 -38 -97 -131q0 -61 48 -101.5t132 -40.5q88 0 145 49z" />
<glyph unicode="'" horiz-adv-x="196" d="M114 426h-44l-19 279h81z" />
<glyph unicode="(" horiz-adv-x="373" d="M289 -169q-47 31 -87 70.5t-77 94.5t-58.5 128.5t-21.5 157.5q0 302 243 458h70v-4q-241 -167 -241 -453q0 -262 241 -448v-4h-69z" />
<glyph unicode=")" horiz-adv-x="373" d="M68 740q47 -31 87 -70.5t77 -94.5t58.5 -128.5t21.5 -157.5q0 -302 -243 -458h-70v4q241 167 241 453q0 262 -241 448v4h69z" />
<glyph unicode="*" horiz-adv-x="420" d="M120 355l-49 34q45 64 99 120q-91 22 -148 40l19 58q71 -23 143 -55q-9 87 -10 153h61q0 -40 -9 -155q90 40 144 57l19 -58q-73 -22 -151 -40q65 -71 99 -118l-49 -36q-45 63 -85 129q-36 -62 -83 -129z" />
<glyph unicode="+" horiz-adv-x="700" d="M378 35h-55v232h-233v56h232v231h56v-231h232v-56h-232v-232z" />
<glyph unicode="," horiz-adv-x="225" d="M71 -159h-65v4q38 31 62 81t24 108q0 49 -16 85h81q14 -28 14 -79q0 -60 -29.5 -114t-70.5 -85z" />
<glyph unicode="-" horiz-adv-x="321" d="M280 239h-241v67h241v-67z" />
<glyph unicode="." horiz-adv-x="225" d="M173 44q0 -24 -16 -39.5t-40 -15.5q-23 0 -39 15t-16 40q0 27 17 42t39 15t38.5 -15t16.5 -42z" />
<glyph unicode="/" horiz-adv-x="392" d="M47 -57h-62l341 788h62z" />
<glyph unicode="0" d="M533 332q0 -158 -68 -252t-182 -94t-180.5 93.5t-66.5 252.5q0 157 69.5 252t180.5 95q116 0 181.5 -93.5t65.5 -253.5zM455 333q0 131 -45.5 205t-123.5 74q-80 0 -126.5 -74t-46.5 -205t46.5 -205t126.5 -74q78 0 123.5 74t45.5 205z" />
<glyph unicode="1" d="M340 0h-76v593l-141 -77v72l160 92h57v-680z" />
<glyph unicode="2" d="M512 0h-462v43q15 13 62.5 56t69.5 63t57.5 54.5t63.5 64.5q96 102 96 198q0 58 -35 95t-104 37q-51 0 -101.5 -26t-87.5 -74h-4v81q35 39 89 63t109 24q103 0 158 -52.5t55 -142.5q0 -106 -96 -219q-27 -32 -97 -96t-119 -102q101 1 346 1v-68z" />
<glyph unicode="3" d="M72 44v83h4q34 -35 82.5 -54t97.5 -19q87 0 122.5 38.5t35.5 94.5q0 36 -22.5 65.5t-64.5 42.5q-45 13 -101 13h-29v67h31q74 0 110 22q56 32 56 102q0 48 -33 80t-96 32q-42 0 -93.5 -21.5t-82.5 -62.5h-4v78q30 32 82 53t104 21q96 0 148 -47.5t52 -131.5 q0 -52 -31.5 -94t-86.5 -61q63 -12 101 -52t38 -104q0 -94 -64 -148.5t-171 -54.5q-117 0 -185 58z" />
<glyph unicode="4" d="M436 0h-74v174h-326v49l337 456h63v-440h111v-65h-111v-174zM362 239q0 195 4 330q-67 -100 -241 -330h237z" />
<glyph unicode="5" d="M69 43v82h4q78 -71 186 -71q82 0 125.5 42t43.5 115q0 140 -162 140q-93 0 -164 -58h-4l38 372h335v-68h-275l-24 -210q50 34 127 34q93 0 150 -51t57 -153q0 -113 -71 -172t-180 -59q-110 0 -186 57z" />
<glyph unicode="6" d="M135 329q24 47 75 76.5t111 29.5q91 0 150 -56t59 -161q0 -110 -62 -171t-159 -61q-35 0 -67.5 8.5t-66.5 30.5t-58.5 56.5t-40 92t-15.5 131.5q0 100 24.5 175t66 117t90.5 62t106 20q105 0 157 -41v-84h-5q-52 57 -150 57q-102 0 -156.5 -75.5t-58.5 -206.5zM144 243 q1 -49 17 -91q15 -43 53.5 -71t88.5 -28q65 0 108 40t43 120q0 77 -41 115.5t-107 38.5q-61 0 -106 -38t-56 -86z" />
<glyph unicode="7" d="M247 0h-81q100 256 260 597h-368v68h446v-51q-144 -315 -257 -614z" />
<glyph unicode="8" d="M379 349q63 -19 99.5 -62.5t36.5 -107.5q0 -86 -64 -139.5t-168 -53.5q-102 0 -166.5 50t-64.5 138q0 58 36.5 100t101.5 63q-52 21 -82.5 61.5t-30.5 98.5q0 79 59.5 130.5t149.5 51.5q94 0 151 -48t57 -132q0 -52 -31.5 -93t-83.5 -57zM288 374q130 17 130 124 q0 51 -36.5 82.5t-97.5 31.5q-58 0 -95.5 -32.5t-37.5 -81.5q0 -58 37.5 -88t99.5 -36zM279 309q-65 -7 -108 -41.5t-43 -88.5q0 -60 45.5 -92.5t111.5 -32.5q68 0 111 33.5t43 92.5q0 58 -45 90.5t-115 38.5z" />
<glyph unicode="9" d="M58 34v78h4q61 -58 168 -58q199 0 208 280q-25 -46 -73 -76t-110 -30q-90 0 -151 57t-61 162t68 168.5t164 63.5q36 0 67.5 -8t63.5 -30t55 -57t37 -92t14 -132q0 -103 -22.5 -178t-62.5 -116.5t-88.5 -60.5t-107.5 -19q-50 0 -98 13t-75 35zM427 422q0 41 -11 79 q-14 49 -51.5 79.5t-88.5 30.5q-64 0 -110.5 -41t-46.5 -119q0 -75 41 -114.5t106 -39.5q63 0 105 36.5t56 88.5z" />
<glyph unicode=":" horiz-adv-x="245" d="M193 44q0 -24 -16 -39.5t-40 -15.5q-23 0 -39 15t-16 40q0 27 17 42t39 15t38.5 -15t16.5 -42zM193 439q0 -24 -16 -39.5t-40 -15.5q-23 0 -39 15t-16 40q0 28 16.5 42.5t39.5 14.5q22 0 38.5 -14.5t16.5 -42.5z" />
<glyph unicode=";" horiz-adv-x="245" d="M195 439q0 -24 -16 -39.5t-40 -15.5q-23 0 -39 15t-16 40q0 28 16.5 42.5t39.5 14.5q22 0 38.5 -14.5t16.5 -42.5zM91 -159h-65v4q38 31 62 81t24 108q0 49 -16 85h81q14 -28 14 -79q0 -60 -29.5 -114t-70.5 -85z" />
<glyph unicode="&#x3c;" horiz-adv-x="700" d="M565 47l-451 216v58l451 222v-66l-388 -183l388 -180v-67z" />
<glyph unicode="=" horiz-adv-x="700" d="M610 170h-520v56h520v-56zM610 359h-520v56h520v-56z" />
<glyph unicode="&#x3e;" horiz-adv-x="700" d="M134 543l451 -217v-57l-451 -222v66l389 184l-389 179v67z" />
<glyph unicode="?" horiz-adv-x="428" d="M198 211h-59q0 43 2.5 65t18 51.5t46.5 53.5q59 44 84 79t25 73q0 49 -30.5 76t-91.5 27q-87 0 -156 -73h-4v74q29 30 77.5 48.5t94.5 18.5q92 0 140.5 -41.5t48.5 -121.5q0 -51 -28.5 -93.5t-103.5 -96.5q-39 -28 -50.5 -58t-13.5 -82zM225 44q0 -24 -16 -39.5 t-40 -15.5q-23 0 -39 15t-16 40q0 27 17 42t39 15t38.5 -15t16.5 -42z" />
<glyph unicode="@" horiz-adv-x="847" d="M693 -64q-114 -71 -272 -71q-163 0 -263.5 96.5t-100.5 253.5q0 176 122.5 299.5t301.5 123.5q144 0 230.5 -80.5t86.5 -214.5q0 -114 -61.5 -201.5t-144.5 -87.5q-52 0 -63 40q-5 13 -5 34q-62 -77 -153 -77q-65 0 -106.5 38.5t-41.5 111.5q0 55 24.5 108.5t67.5 91.5 q68 59 148 59q39 0 70 -17t43 -48l14 56h51l-52 -243q-10 -47 -10 -73q0 -35 30 -35q51 0 94.5 74.5t43.5 162.5q0 117 -72.5 187t-193.5 70q-152 0 -261 -109.5t-109 -269.5q0 -134 87.5 -218.5t228.5 -84.5q158 0 273 82h4zM533 206l26 122q-7 41 -33.5 62.5t-66.5 21.5 q-60 0 -110 -47q-30 -28 -49 -71t-19 -86q0 -103 103 -103q40 0 81.5 26.5t67.5 74.5z" />
<glyph unicode="A" horiz-adv-x="649" d="M85 0h-81l282 689h70l277 -689h-84l-81 209h-300zM194 276h248q-86 217 -122 319q-24 -66 -126 -319z" />
<glyph unicode="B" horiz-adv-x="619" d="M86 0v689h150q69 0 106 -4q79 -7 125.5 -48t46.5 -113q0 -64 -26.5 -101t-86.5 -60q73 -12 113.5 -53.5t40.5 -111.5q0 -63 -32.5 -110t-91.5 -68q-53 -20 -178 -20h-167zM159 65h105q97 0 137 17q80 33 80 119q0 38 -21.5 66.5t-57.5 40.5q-48 17 -125 17h-118v-260z M159 389h99q87 0 118 16q64 37 64 110q0 78 -86 101q-38 10 -106 10h-89v-237z" />
<glyph unicode="C" horiz-adv-x="681" d="M622 55q-31 -29 -91.5 -49t-122.5 -20q-154 0 -255 97.5t-101 261.5q0 165 107 262t259 97q58 0 115 -16.5t86 -44.5v-83h-4q-33 35 -88.5 55t-111.5 20q-123 0 -204.5 -78t-81.5 -208q0 -139 79.5 -216t204.5 -77q120 0 205 80h4v-81z" />
<glyph unicode="D" horiz-adv-x="734" d="M86 0v689h185q111 0 191 -23q99 -28 155.5 -106t56.5 -207q0 -247 -208 -322q-85 -31 -220 -31h-160zM160 69h101q134 0 211 42q124 66 124 240q0 83 -37 148.5t-109 92.5q-68 27 -173 27h-117v-550z" />
<glyph unicode="E" horiz-adv-x="559" d="M509 0h-423v689h407v-70h-331v-227h312v-68h-312v-255h347v-69z" />
<glyph unicode="F" horiz-adv-x="522" d="M161 0h-75v689h393v-70h-318v-247h294v-68h-294v-304z" />
<glyph unicode="G" horiz-adv-x="734" d="M658 56q-100 -70 -247 -70q-154 0 -255 95.5t-101 263.5t107 263.5t261 95.5q62 0 120 -16.5t89 -43.5v-84h-4q-72 75 -206 75q-126 0 -207 -75t-81 -210q0 -139 80 -216.5t206 -77.5q94 0 163 37v192h-176v70h251v-299z" />
<glyph unicode="H" horiz-adv-x="722" d="M162 0h-76v689h76v-295h377v295h77v-689h-77v324h-377v-324z" />
<glyph unicode="I" horiz-adv-x="269" d="M162 0h-76v689h76v-689z" />
<glyph unicode="J" horiz-adv-x="403" d="M17 13v73h4q43 -30 100 -30q74 0 100 47q17 32 17 130v456h77v-463q0 -110 -22 -156q-40 -84 -165 -84q-64 0 -111 27z" />
<glyph unicode="K" horiz-adv-x="630" d="M522 0l-249 371l-111 -117v-254h-76v689h76v-341l312 341h100l-250 -263l291 -426h-93z" />
<glyph unicode="L" horiz-adv-x="533" d="M491 0h-405v689h76v-619h329v-70z" />
<glyph unicode="M" horiz-adv-x="839" d="M161 0h-75v689h84q200 -365 243 -452q52 104 243 452h82v-689h-79q0 489 3 569q-43 -88 -227 -424h-51q-170 320 -227 424q4 -133 4 -569z" />
<glyph unicode="N" horiz-adv-x="726" d="M161 0h-75v689h78q318 -445 383 -546q-4 157 -4 546h75v-689h-62q-311 448 -398 578q3 -146 3 -578z" />
<glyph unicode="O" horiz-adv-x="809" d="M757 345q0 -153 -101 -256t-253 -103q-151 0 -251 102.5t-100 256.5q0 151 102.5 255t251.5 104q154 0 252.5 -101.5t98.5 -257.5zM681 344q0 123 -77.5 207t-198.5 84q-117 0 -196.5 -84t-79.5 -207q0 -126 80 -207.5t197 -81.5q120 0 197.5 82.5t77.5 206.5z" />
<glyph unicode="P" horiz-adv-x="608" d="M162 0h-76v689h203q104 0 162 -21q51 -19 80.5 -66.5t29.5 -114.5q0 -157 -132 -200q-62 -20 -142 -20h-125v-267zM162 335h121q89 0 133 21q67 32 67 129q0 86 -67 116q-41 20 -130 20h-124v-286z" />
<glyph unicode="Q" horiz-adv-x="809" d="M757 345q0 -101 -46.5 -183.5t-126.5 -128.5l164 -111l-45 -63l-202 140q-45 -13 -98 -13q-151 0 -251 102.5t-100 256.5q0 151 102.5 255t251.5 104q154 0 252.5 -101.5t98.5 -257.5zM681 344q0 123 -77.5 207t-198.5 84q-117 0 -196.5 -84t-79.5 -207q0 -126 80 -207.5 t197 -81.5q120 0 197.5 82.5t77.5 206.5z" />
<glyph unicode="R" horiz-adv-x="622" d="M593 0h-89l-180 294q-42 -2 -61 -2h-101v-292h-76v689h187q110 0 164 -19q52 -18 82 -63t30 -110q0 -72 -36.5 -119.5t-100.5 -67.5l-11 -3zM162 358h106q89 0 134 20q69 30 69 115q0 79 -65 109q-45 20 -133 20h-111v-264z" />
<glyph unicode="S" horiz-adv-x="569" d="M43 63v89h4q43 -46 107 -70.5t128 -24.5q170 0 170 122q0 43 -34.5 69t-118.5 53l-96 31q-149 47 -149 176q0 88 67 142t184 54q52 0 110 -16.5t83 -40.5v-84h-4q-36 35 -91.5 53.5t-109.5 18.5q-87 0 -124.5 -34.5t-37.5 -85.5q0 -41 27.5 -69t96.5 -50l107 -34 q87 -28 127 -68t40 -108q0 -87 -61.5 -143.5t-189.5 -56.5q-66 0 -131 20.5t-104 56.5z" />
<glyph unicode="T" horiz-adv-x="573" d="M317 0h-76v619h-222v70h528v-70h-230v-619z" />
<glyph unicode="U" horiz-adv-x="727" d="M634 689v-390q0 -132 -36 -193q-31 -52 -93.5 -86t-146.5 -34q-88 0 -153 32t-95 93q-29 58 -29 186v392h77v-379q0 -120 29 -174q19 -35 64 -57.5t108 -22.5q115 0 168 78q34 50 34 172v383h73z" />
<glyph unicode="V" horiz-adv-x="638" d="M347 0h-69l-275 689h85q161 -398 227 -583q55 153 225 583h84z" />
<glyph unicode="W" horiz-adv-x="965" d="M284 0h-70l-199 689h84q128 -453 156 -570q40 141 183 570h68q147 -452 181 -570q37 150 158 570h83l-207 -689h-70q-151 472 -182 579q-33 -113 -185 -579z" />
<glyph unicode="X" horiz-adv-x="687" d="M108 0h-97l267 364l-236 325h98q62 -85 194 -271q2 3 57.5 82.5t132.5 188.5h94l-236 -327l267 -362h-97q-175 236 -224 306q-98 -138 -220 -306z" />
<glyph unicode="Y" horiz-adv-x="629" d="M342 0h-77v278l-262 411h92q163 -257 210 -340q62 105 215 340h91l-269 -411v-278z" />
<glyph unicode="Z" horiz-adv-x="617" d="M583 0h-562v44q96 121 178 225t123.5 156.5t75 94.5t49.5 62.5t29 36.5h-421v70h527v-49q-341 -435 -451 -571h452v-69z" />
<glyph unicode="[" horiz-adv-x="315" d="M275 -163h-197v899h197v-51h-131v-797h131v-51z" />
<glyph unicode="\" horiz-adv-x="392" d="M49 731l341 -788h-62l-341 788h62z" />
<glyph unicode="]" horiz-adv-x="298" d="M10 737h196v-899h-196v51h130v797h-130v51z" />
<glyph unicode="^" horiz-adv-x="711" d="M570 281h-65l-157 327l-155 -327h-65l187 394h67z" />
<glyph unicode="_" horiz-adv-x="524" d="M0 -78h524v-49h-524v49z" />
<glyph unicode="`" horiz-adv-x="210" d="M212 577h-69l-164 161v4h104l129 -161v-4z" />
<glyph unicode="a" horiz-adv-x="539" d="M533 5q-21 -12 -56 -12q-78 0 -90 68q-52 -74 -163 -74q-81 0 -130 42t-49 108q0 94 93 130q60 24 165 24q40 0 74 -6v42q0 49 -20 73q-31 38 -102 38q-40 0 -89.5 -16.5t-80.5 -49.5h-4v73q36 31 87 47t100 16q90 0 138 -47q23 -23 33.5 -53.5t10.5 -83.5 q0 -18 -0.5 -83t-0.5 -87q0 -56 6 -72q10 -23 38 -23q22 0 40 8v-62zM378 122q-1 19 -1 103q-38 7 -79 7q-74 0 -115 -14q-63 -20 -63 -79q0 -38 31.5 -62t85.5 -24q94 0 141 69z" />
<glyph unicode="b" horiz-adv-x="643" d="M150 0h-69v728h72v-326q25 46 78 76t116 30q107 0 175 -70.5t68 -188.5q0 -116 -73 -189t-178 -73q-63 0 -112.5 24.5t-76.5 66.5v-78zM153 169q20 -53 70 -84t111 -31q80 0 131 54t51 141t-52 139t-129 52q-60 0 -111 -33.5t-71 -89.5v-148z" />
<glyph unicode="c" horiz-adv-x="509" d="M474 42q-67 -55 -170 -55q-108 0 -182.5 71t-74.5 186t76 189.5t191 74.5q48 0 91.5 -14.5t66.5 -38.5v-81h-4q-24 30 -68 48t-88 18q-79 0 -135 -51.5t-56 -141.5q0 -93 57.5 -143t133.5 -50q99 0 158 65h4v-77z" />
<glyph unicode="d" horiz-adv-x="643" d="M556 0h-70v90q-24 -46 -71.5 -74.5t-116.5 -28.5q-102 0 -176.5 68.5t-74.5 187.5q0 125 77.5 195t180.5 70q122 0 182 -87v306h69v-727zM484 175v152q-20 55 -69 84.5t-104 29.5q-78 0 -134 -49.5t-56 -147.5q0 -92 55 -140.5t130 -48.5q58 0 107 30.5t71 89.5z" />
<glyph unicode="e" horiz-adv-x="557" d="M500 46q-29 -26 -83 -42.5t-106 -16.5q-120 0 -192 71t-72 186q0 121 73 192.5t173 71.5q106 0 163 -61.5t58 -169.5q0 -36 -3 -55h-389q5 -74 57.5 -121t138.5 -47q109 0 178 66h4v-74zM440 285v8q0 71 -39.5 111t-112.5 40q-58 0 -107.5 -40t-57.5 -119h317z" />
<glyph unicode="f" horiz-adv-x="335" d="M177 0h-72v431h-78v63h78v57q0 96 42 140q44 49 129 49q51 0 80 -20v-67h-4q-28 22 -75 22q-56 0 -80 -33q-20 -26 -20 -92v-56h124v-63h-124v-431z" />
<glyph unicode="g" horiz-adv-x="625" d="M102 -150v78h4q72 -67 191 -67q106 0 148 60q27 36 27 125v52q-21 -42 -67 -70t-111 -28q-105 0 -175.5 65t-70.5 179q0 67 23.5 119.5t61.5 83t82 46t89 15.5q60 0 105.5 -24t64.5 -64v74h69v-446q0 -103 -32 -155q-57 -100 -219 -100q-61 0 -112 16.5t-78 40.5z M471 178v156q-19 51 -63 79t-102 28q-76 0 -130 -50.5t-54 -145.5q0 -85 52.5 -131t129.5 -46q58 0 102.5 29.5t64.5 80.5z" />
<glyph unicode="h" horiz-adv-x="595" d="M153 0h-72v728h72v-314q25 41 71.5 66.5t109.5 25.5q67 0 109 -28t54 -78q10 -36 10 -109v-291h-72v280q0 75 -15 102q-28 55 -105 55q-49 0 -95 -26t-67 -66v-345z" />
<glyph unicode="i" horiz-adv-x="259" d="M158 0h-73v494h73v-494zM170 656q0 -22 -14 -36t-35 -14t-34.5 13.5t-13.5 36.5q0 25 14.5 38t33.5 13t34 -13.5t15 -37.5z" />
<glyph unicode="j" horiz-adv-x="259" d="M-62 -192v68h4q27 -21 67 -21q39 0 56 20q19 23 19 101v518h72v-516q0 -106 -27 -141q-37 -47 -108 -47q-51 0 -83 18zM169 656q0 -22 -14 -36t-35 -14t-34.5 13.5t-13.5 36.5q0 25 14.5 38t33.5 13t34 -13.5t15 -37.5z" />
<glyph unicode="k" horiz-adv-x="506" d="M155 0h-72v728h72v-459l223 225h100l-190 -182l212 -312h-90l-174 261l-81 -77v-184z" />
<glyph unicode="l" horiz-adv-x="254" d="M153 0h-72v728h72v-728z" />
<glyph unicode="m" horiz-adv-x="915" d="M153 0h-72v494h71v-81q24 41 70.5 67t106.5 26q125 0 152 -94q25 40 73 67t115 27q130 0 158 -106q9 -37 9 -109v-291h-72v280q0 74 -14 102q-22 55 -101 55q-50 0 -92.5 -26t-62.5 -65q1 -13 1 -57v-289h-72v280q0 72 -13 102q-24 55 -101 55q-50 0 -92.5 -26t-63.5 -65 v-346z" />
<glyph unicode="n" horiz-adv-x="595" d="M153 0h-72v494h71v-81q24 41 71.5 67t110.5 26q67 0 109 -28t54 -78q10 -36 10 -109v-291h-72v280q0 75 -15 102q-28 55 -105 55q-49 0 -95 -26t-67 -66v-345z" />
<glyph unicode="o" horiz-adv-x="615" d="M565 247q0 -110 -74.5 -185t-185.5 -75t-184.5 74.5t-73.5 185.5t75.5 186t184.5 75q113 0 185.5 -73t72.5 -188zM490 247q0 82 -51.5 137.5t-132.5 55.5q-79 0 -132 -55.5t-53 -137.5q0 -84 53 -138t133 -54t131.5 55.5t51.5 136.5z" />
<glyph unicode="p" horiz-adv-x="643" d="M153 -194h-72v688h71v-94q23 46 78 77t118 31q101 0 171.5 -68t70.5 -187q0 -124 -74 -192t-179 -68q-56 0 -107.5 24t-76.5 65v-276zM153 176q24 -58 75 -86.5t108 -28.5q75 0 127.5 48.5t52.5 143.5q0 93 -55.5 140t-124.5 47q-57 0 -109 -30.5t-74 -90.5v-143z" />
<glyph unicode="q" horiz-adv-x="636" d="M552 -194h-71v293q-20 -47 -72 -76t-114 -29q-104 0 -176 64t-72 186q0 125 77.5 195t178.5 70q58 0 106 -23t75 -66v74h68v-688zM479 182v145q-20 58 -67.5 86t-105.5 28q-72 0 -128.5 -49t-56.5 -147q0 -93 52 -138t129 -45q58 0 107 31t70 89z" />
<glyph unicode="r" horiz-adv-x="381" d="M153 0h-72v494h71v-79q10 35 48 64t89 29q36 0 60 -15v-78h-4q-23 16 -61 16q-99 0 -131 -89v-342z" />
<glyph unicode="s" horiz-adv-x="446" d="M45 41v80h4q32 -33 81.5 -50t97.5 -17q114 0 114 72q0 30 -20.5 48t-79.5 34l-78 22q-113 32 -113 133q0 65 51.5 105t140.5 40q41 0 86 -12t64 -29v-77h-4q-26 24 -70 38t-83 14q-111 0 -111 -72q0 -28 18.5 -46.5t60.5 -30.5l86 -24q66 -19 96.5 -51.5t30.5 -83.5 q0 -64 -47.5 -105.5t-144.5 -41.5q-49 0 -100.5 14.5t-79.5 39.5z" />
<glyph unicode="t" horiz-adv-x="350" d="M329 13q-32 -24 -97 -24q-33 0 -62 12.5t-43 33.5q-25 36 -25 121v277h-78v61h79q0 6 4 144h67v-144h135v-61h-135v-271q0 -53 13 -77q14 -28 63 -28q46 0 75 22h4v-66z" />
<glyph unicode="u" horiz-adv-x="595" d="M503 0h-69v69q-56 -82 -177 -82q-70 0 -112.5 28t-56.5 78q-11 40 -11 118v282h72v-272q0 -77 15 -109q25 -56 109 -56q48 0 91 23.5t67 58.5v355h72v-493z" />
<glyph unicode="v" horiz-adv-x="507" d="M274 0h-60l-210 494h82q116 -283 159 -398q38 102 165 398h78z" />
<glyph unicode="w" horiz-adv-x="772" d="M238 0h-60l-162 494h79q93 -294 118 -387q34 109 136 387h60q128 -350 140 -388q37 135 115 388h76l-162 -494h-58q-127 348 -143 397q-19 -64 -139 -397z" />
<glyph unicode="x" horiz-adv-x="538" d="M100 0h-88l190 254l-178 240h93q40 -54 69 -94.5t47 -65.5t25 -35q34 55 138 195h89l-180 -236l194 -258h-95q-56 77 -101 137t-54 73q-71 -102 -149 -210z" />
<glyph unicode="y" horiz-adv-x="508" d="M17 -196v68h4q24 -19 72 -19q47 0 73 38q17 25 35 76l14 36l-209 491h82q117 -277 166 -411q36 102 157 411h79l-207 -511q-42 -103 -63 -134q-42 -63 -123 -63q-50 0 -80 18z" />
<glyph unicode="z" horiz-adv-x="488" d="M445 0h-419v46q95 115 319 383h-296v65h391v-50q-244 -296 -320 -380h325v-64z" />
<glyph unicode="{" horiz-adv-x="360" d="M322 -169h-38q-38 0 -64 6t-49.5 22.5t-35 49.5t-11.5 84v114q0 88 -22 118.5t-78 37.5v47q59 8 79.5 38.5t20.5 115.5v116q0 94 41 128t119 34h38v-50h-40q-43 0 -67.5 -24t-24.5 -89v-112q0 -69 -11 -105.5t-27 -49t-53 -25.5q50 -11 70.5 -49t20.5 -133v-111 q0 -66 24.5 -89.5t68.5 -23.5h39v-50z" />
<glyph unicode="|" horiz-adv-x="235" d="M143 -184h-65v949h65v-949z" />
<glyph unicode="}" horiz-adv-x="338" d="M10 745h32q79 0 119.5 -32.5t40.5 -128.5v-117q0 -89 21 -119t77 -37v-46q-59 -9 -78.5 -39t-19.5 -116v-117q0 -95 -41 -129t-119 -34h-32v50h34q43 0 68 24t25 89v114q0 69 10.5 105.5t27 49t52.5 25.5q-49 11 -69.5 49t-20.5 134v113q0 65 -25.5 89t-69.5 24h-32v49z " />
<glyph unicode="~" horiz-adv-x="700" d="M124 230l-41 35q76 103 157 103q41 0 120 -46q59 -35 98 -35q31 0 56 18.5t54 63.5l43 -32q-35 -56 -70.5 -82.5t-83.5 -26.5q-50 0 -118 39q-74 43 -103 43q-55 0 -112 -80z" />
<glyph unicode="&#xa1;" horiz-adv-x="287" d="M89 293h59q14 -404 14 -478h-86q0 70 13 478zM62 460q0 24 16 39.5t40 15.5t40 -15t16 -40q0 -27 -17 -42t-39 -15q-23 0 -39.5 14.5t-16.5 42.5z" />
<glyph unicode="&#xa2;" horiz-adv-x="542" d="M330 -110h-45v106q-93 9 -154 75t-61 173q0 102 59.5 171t155.5 81v104h45v-101q102 -4 147 -50v-78h-4q-24 27 -63.5 43t-79.5 18v-371q90 3 146 61h4v-74q-62 -50 -150 -54v-104zM145 247q0 -79 40 -125t100 -58v364q-62 -11 -101 -57.5t-39 -123.5z" />
<glyph unicode="&#xa3;" horiz-adv-x="595" d="M547 0h-486v52q128 68 128 162q0 37 -12 65h-99v57h82q-32 92 -32 147q0 90 60 143t173 53q103 0 161 -48v-82h-4q-61 62 -157 62q-153 0 -153 -128q0 -48 33 -147h211v-57h-196q9 -39 9 -68q0 -87 -87 -143h369v-68z" />
<glyph unicode="&#xa4;" horiz-adv-x="609" d="M112 81l-42 43l66 68q-43 51 -43 128q0 71 42 129l-66 67l44 42l65 -67q52 42 126 42q73 0 124 -40l66 67l42 -43l-65 -68q43 -54 43 -128q0 -77 -43 -128l66 -69l-44 -42l-64 68q-55 -42 -128 -42t-124 38zM155 323q0 -69 41.5 -112t107.5 -43q63 0 105 43t42 110 t-41.5 110t-105.5 43t-106.5 -43t-42.5 -108z" />
<glyph unicode="&#xa5;" horiz-adv-x="638" d="M351 0h-76v210h-185v46h185v13l-48 75h-137v45h108l-174 272h92q157 -245 199 -321q35 61 202 321h89l-178 -272h114v-45h-142l-49 -75v-13h191v-46h-191v-210z" />
<glyph unicode="&#xa6;" horiz-adv-x="235" d="M143 386h-65v329h65v-329zM143 -94h-65v329h65v-329z" />
<glyph unicode="&#xa7;" horiz-adv-x="502" d="M307 178q29 8 51 30.5t22 56.5q0 46 -58 84q-14 9 -38.5 22.5t-53.5 28t-36 18.5q-26 -2 -52.5 -26t-26.5 -58q0 -48 58 -84q74 -45 134 -72zM46 -65v79h4q34 -36 84.5 -56t97.5 -20q56 0 85 21.5t29 60.5q0 47 -55 81q-25 16 -85 47t-90 52q-72 50 -72 121 q0 48 29.5 81.5t75.5 47.5q-66 47 -66 122q0 58 45 101.5t138 43.5q101 0 150 -46v-77h-4q-59 61 -149 61q-54 0 -79.5 -22.5t-25.5 -55.5q0 -27 15 -47.5t52 -41.5q17 -10 53.5 -29t66 -36t53.5 -35q54 -39 54 -112q0 -44 -26.5 -78.5t-70.5 -49.5q68 -47 68 -120 q0 -69 -51 -112t-143 -43q-116 0 -183 62z" />
<glyph unicode="&#xa8;" horiz-adv-x="210" d="M59 656q0 -21 -13 -34t-34 -13t-34.5 13t-13.5 34q0 23 14.5 36t33.5 13q18 0 32.5 -13t14.5 -36zM232 656q0 -21 -13.5 -34t-34.5 -13q-20 0 -33.5 13t-13.5 34q0 23 14 36t33 13t33.5 -13t14.5 -36z" />
<glyph unicode="&#xa9;" horiz-adv-x="828" d="M777 345q0 -153 -103.5 -256t-259.5 -103t-259.5 103t-103.5 256t104 256.5t258 103.5q159 0 261.5 -102.5t102.5 -257.5zM740 345q0 140 -92.5 233.5t-234.5 93.5q-139 0 -231.5 -94t-92.5 -233q0 -140 92 -233t233 -93t233.5 93t92.5 233zM564 166q-55 -44 -141 -44 q-94 0 -158 61.5t-64 163.5q0 100 66 163t164 63q93 0 131 -41v-67h-4q-22 24 -57.5 38t-71.5 14q-68 0 -117 -45.5t-49 -122.5q0 -81 48.5 -126t117.5 -45q76 0 131 50h4v-62z" />
<glyph unicode="&#xaa;" horiz-adv-x="366" d="M356 295q-13 -8 -38 -8q-57 0 -65 44q-37 -48 -104 -48q-51 0 -83 27.5t-32 69.5q0 63 57 85q41 16 110 16q22 0 46 -4v13q0 33 -10 49q-16 24 -62 24q-27 0 -59.5 -10.5t-52.5 -30.5h-4v56q49 40 125 40q59 0 91 -30q28 -28 28 -90q0 -11 -0.5 -46t-0.5 -49q0 -39 4 -47 q5 -14 26 -14q14 0 24 5v-52zM248 376q-1 12 -1 54q-22 5 -49 5q-54 -2 -79 -13q-27 -13 -27 -42q0 -22 17 -35.5t49 -13.5q58 0 90 45z" />
<glyph unicode="&#xab;" horiz-adv-x="470" d="M240 68h-78l-139 184l138 184h78l-136 -184zM419 68h-77l-139 184l138 184h77l-136 -184z" />
<glyph unicode="&#xac;" horiz-adv-x="700" d="M602 35h-57v232h-463v56h520v-288z" />
<glyph unicode="&#xad;" horiz-adv-x="321" d="M280 239h-241v67h241v-67z" />
<glyph unicode="&#xae;" horiz-adv-x="828" d="M777 345q0 -153 -103.5 -256t-259.5 -103t-259.5 103t-103.5 256t104 256.5t258 103.5q159 0 261.5 -102.5t102.5 -257.5zM740 345q0 140 -92.5 233.5t-234.5 93.5q-139 0 -231.5 -94t-92.5 -233q0 -140 92 -233t233 -93t233.5 93t92.5 233zM613 123h-65l-109 190 q-18 -2 -46 -2h-61v-188h-58v445h134q69 0 105 -13q73 -27 73 -112q0 -43 -25 -74t-67 -44zM332 360h64q61 0 91 13q40 16 40 67q0 55 -44 70q-24 8 -82 8h-69v-158z" />
<glyph unicode="&#xaf;" horiz-adv-x="210" d="M252 591h-292v61h292v-61z" />
<glyph unicode="&#xb0;" horiz-adv-x="311" d="M290 576q0 -59 -40 -98t-97 -39t-95.5 39t-38.5 95q0 61 39.5 100t97.5 39q60 0 97 -38t37 -98zM245 577q0 39 -24.5 66t-66.5 27q-41 0 -65.5 -27.5t-24.5 -68.5q0 -40 24.5 -67t65.5 -27t66 27.5t25 69.5z" />
<glyph unicode="&#xb1;" horiz-adv-x="700" d="M378 129h-55v226h-233v56h232v223h56v-223h232v-56h-232v-226zM610 0h-520v56h520v-56z" />
<glyph unicode="&#xb2;" horiz-adv-x="400" d="M337 400h-306v34q104 84 163 143t59 115q0 33 -21.5 54.5t-62.5 21.5q-72 0 -123 -60h-4v59q52 54 133 54q68 0 104 -33t36 -89q0 -68 -62 -134q-17 -19 -58.5 -55t-72.5 -59q63 1 215 1v-52z" />
<glyph unicode="&#xb3;" horiz-adv-x="400" d="M47 426v63h4q45 -45 116 -45q52 0 74 21.5t22 52.5q0 21 -13.5 38t-38.5 23q-22 7 -66 7h-18v50h20q46 0 70 13q33 17 33 57q0 28 -20 45t-58 17q-28 0 -60 -12.5t-53 -37.5h-4v58q21 20 55.5 32.5t68.5 12.5q65 0 99 -29.5t34 -81.5q0 -33 -21 -58.5t-57 -36.5 q43 -8 67.5 -33t24.5 -64q0 -59 -43 -93t-115 -34q-74 0 -121 35z" />
<glyph unicode="&#xb4;" horiz-adv-x="210" d="M47 577h-68v4l128 161h100v-4z" />
<glyph unicode="&#xb5;" horiz-adv-x="591" d="M150 -211h-73v704h72v-274q0 -77 16 -107q30 -53 108 -53q50 0 92.5 23t65.5 63v348h72v-493h-69v76q-52 -87 -166 -87q-86 0 -118 50v-250z" />
<glyph unicode="&#xb6;" horiz-adv-x="559" d="M328 -144h-42v372q-113 0 -178 63t-65 160q0 238 290 238h153v-833h-42v795h-116v-795z" />
<glyph unicode="&#xb7;" horiz-adv-x="225" d="M158 258q0 -24 -16 -39t-40 -15t-39.5 14.5t-15.5 39.5q0 28 16.5 42.5t39.5 14.5q22 0 38.5 -14.5t16.5 -42.5z" />
<glyph unicode="&#xb8;" horiz-adv-x="210" d="M5 -229v52h4q27 -21 65 -21q63 0 63 48q0 20 -16.5 33t-46.5 13q-22 0 -38 -6l-3 2l35 118h51l-22 -71h5q43 0 70.5 -22.5t27.5 -63.5q0 -48 -32.5 -75t-89.5 -27q-46 0 -73 20z" />
<glyph unicode="&#xb9;" horiz-adv-x="400" d="M228 400h-60v352l-91 -48v55l106 58h45v-417z" />
<glyph unicode="&#xba;" horiz-adv-x="393" d="M361 455q0 -82 -50 -126t-119 -44q-67 0 -116 43t-49 125q0 77 52 121t116 44q70 0 118 -41.5t48 -121.5zM304 454q0 58 -31 86t-80 28q-45 0 -76.5 -29.5t-31.5 -85.5q0 -59 32 -88t77 -29q46 0 78 30t32 88z" />
<glyph unicode="&#xbb;" horiz-adv-x="470" d="M209 436h78l139 -184l-138 -184h-78l136 184zM30 436h78l139 -184l-138 -184h-78l136 184z" />
<glyph unicode="&#xbc;" horiz-adv-x="859" d="M258 -12h-52l337 694h51zM224 253h-60v352l-91 -48v55l106 58h45v-417zM699 0h-58v105h-207v37l216 279h49v-267h71v-49h-71v-105zM641 154q0 10 3 187q-32 -47 -145 -187h142z" />
<glyph unicode="&#xbd;" horiz-adv-x="859" d="M237 -12h-52l337 694h51zM209 253h-60v352l-91 -48v55l106 58h45v-417zM777 0h-306v34q104 84 163 143t59 115q0 33 -21.5 54.5t-62.5 21.5q-72 0 -123 -60h-4v59q52 54 133 54q68 0 104 -33t36 -89q0 -68 -62 -134q-17 -19 -58.5 -55t-72.5 -59q63 1 215 1v-52z" />
<glyph unicode="&#xbe;" horiz-adv-x="859" d="M295 -12h-52l337 694h51zM56 279v63h4q45 -45 116 -45q52 0 74 21.5t22 52.5q0 21 -13.5 38t-38.5 23q-22 7 -66 7h-18v50h20q46 0 70 13q33 17 33 57q0 28 -20 45t-58 17q-28 0 -60 -12.5t-53 -37.5h-4v58q21 20 55.5 32.5t68.5 12.5q65 0 99 -29.5t34 -81.5 q0 -33 -21 -58.5t-57 -36.5q43 -8 67.5 -33t24.5 -64q0 -59 -43 -93t-115 -34q-74 0 -121 35zM722 0h-58v105h-207v37l216 279h49v-267h71v-49h-71v-105zM664 154q0 10 3 187q-32 -47 -145 -187h142z" />
<glyph unicode="&#xbf;" horiz-adv-x="414" d="M211 293h59q0 -43 -2.5 -65t-18 -51.5t-46.5 -53.5q-59 -44 -84 -79t-25 -73q0 -49 30 -76t91 -27q88 0 157 73h4v-74q-29 -30 -77.5 -48.5t-94.5 -18.5q-92 0 -140.5 41.5t-48.5 121.5q0 51 28.5 93.5t103.5 96.5q39 28 50.5 58t13.5 82zM184 460q0 24 16 39.5t40 15.5 q23 0 39 -15t16 -40q0 -27 -17 -42t-39 -15t-38.5 14.5t-16.5 42.5z" />
<glyph unicode="&#xc0;" horiz-adv-x="649" d="M85 0h-81l282 689h70l277 -689h-84l-81 209h-300zM194 276h248q-86 217 -122 319q-24 -66 -126 -319zM408 750h-80l-189 130v4h116l153 -130v-4z" />
<glyph unicode="&#xc1;" horiz-adv-x="649" d="M85 0h-81l282 689h70l277 -689h-84l-81 209h-300zM194 276h248q-86 217 -122 319q-24 -66 -126 -319zM306 750h-80v4l152 130h116v-4z" />
<glyph unicode="&#xc2;" horiz-adv-x="649" d="M85 0h-81l282 689h70l277 -689h-84l-81 209h-300zM194 276h248q-86 217 -122 319q-24 -66 -126 -319zM225 750h-76v4l144 130h48l143 -130v-4h-75l-95 70z" />
<glyph unicode="&#xc3;" horiz-adv-x="649" d="M85 0h-81l282 689h70l277 -689h-84l-81 209h-300zM194 276h248q-86 217 -122 319q-24 -66 -126 -319zM206 753h-55q4 58 31 87.5t65 29.5q34 0 79 -30q38 -25 61 -25q35 0 40 57h54q-4 -60 -30.5 -90.5t-62.5 -30.5q-33 0 -82 28q-46 27 -61 27q-32 0 -39 -53z" />
<glyph unicode="&#xc4;" horiz-adv-x="649" d="M85 0h-81l282 689h70l277 -689h-84l-81 209h-300zM194 276h248q-86 217 -122 319q-24 -66 -126 -319zM270 808q0 -21 -13.5 -34t-34.5 -13q-20 0 -33.5 13t-13.5 34q0 23 14 36t33 13t33.5 -13t14.5 -36zM449 808q0 -21 -13.5 -34t-34.5 -13q-20 0 -33.5 13t-13.5 34 q0 23 14 36t34 13q18 0 32.5 -13t14.5 -36z" />
<glyph unicode="&#xc5;" horiz-adv-x="649" d="M85 0h-81l282 689h70l277 -689h-84l-81 209h-300zM194 276h248q-86 217 -122 319q-24 -66 -126 -319zM424 817q0 -41 -29.5 -69.5t-72.5 -28.5t-72.5 28t-29.5 70q0 43 30 70.5t74 27.5t72 -27.5t28 -70.5zM385 818q0 28 -17.5 45t-45.5 17t-45.5 -18t-17.5 -45 q0 -26 17 -44.5t48 -18.5q28 0 44.5 18.5t16.5 45.5z" />
<glyph unicode="&#xc6;" horiz-adv-x="972" d="M92 0h-92l459 689h444v-70h-332v-227h312v-68h-312v-255h348v-69h-424v215h-259zM273 282h222v340q-46 -76 -222 -340z" />
<glyph unicode="&#xc7;" horiz-adv-x="681" d="M285 -236v53h4q27 -21 69 -21q61 0 61 49q0 22 -16.5 35t-47.5 13q-22 0 -39 -7l-3 2l30 103q-130 20 -210.5 114t-80.5 240q0 165 107 262t259 97q58 0 115 -16.5t86 -44.5v-83h-4q-33 35 -88.5 55t-111.5 20q-123 0 -204.5 -78t-81.5 -208q0 -139 79.5 -216t204.5 -77 q120 0 205 80h4v-81q-31 -29 -91.5 -49t-122.5 -20q-2 0 -7 0.5t-8 0.5l-15 -50h5q45 0 72.5 -24.5t27.5 -66.5q0 -48 -33 -75t-91 -27q-49 0 -74 20z" />
<glyph unicode="&#xc8;" horiz-adv-x="559" d="M509 0h-423v689h407v-70h-331v-227h312v-68h-312v-255h347v-69zM371 750h-80l-189 130v4h116l153 -130v-4z" />
<glyph unicode="&#xc9;" horiz-adv-x="559" d="M509 0h-423v689h407v-70h-331v-227h312v-68h-312v-255h347v-69zM295 750h-80v4l152 130h116v-4z" />
<glyph unicode="&#xca;" horiz-adv-x="559" d="M509 0h-423v689h407v-70h-331v-227h312v-68h-312v-255h347v-69zM202 750h-76v4l144 130h48l143 -130v-4h-75l-95 70z" />
<glyph unicode="&#xcb;" horiz-adv-x="559" d="M509 0h-423v689h407v-70h-331v-227h312v-68h-312v-255h347v-69zM251 808q0 -21 -13.5 -34t-34.5 -13q-20 0 -33.5 13t-13.5 34q0 23 14 36t33 13t33.5 -13t14.5 -36zM430 808q0 -21 -13.5 -34t-34.5 -13q-20 0 -33.5 13t-13.5 34q0 23 14 36t34 13q18 0 32.5 -13 t14.5 -36z" />
<glyph unicode="&#xcc;" horiz-adv-x="269" d="M169 0h-76v689h76v-689zM224 750h-80l-189 130v4h116l153 -130v-4z" />
<glyph unicode="&#xcd;" horiz-adv-x="269" d="M167 0h-76v689h76v-689zM122 750h-80v4l152 130h116v-4z" />
<glyph unicode="&#xce;" horiz-adv-x="269" d="M162 0h-76v689h76v-689zM34 750h-76v4l144 130h48l143 -130v-4h-75l-95 70z" />
<glyph unicode="&#xcf;" horiz-adv-x="269" d="M166 0h-76v689h76v-689zM81 808q0 -21 -13.5 -34t-34.5 -13q-20 0 -33.5 13t-13.5 34q0 23 14 36t33 13t33.5 -13t14.5 -36zM260 808q0 -21 -13.5 -34t-34.5 -13q-20 0 -33.5 13t-13.5 34q0 23 14 36t34 13q18 0 32.5 -13t14.5 -36z" />
<glyph unicode="&#xd0;" horiz-adv-x="734" d="M91 0v325h-80v66h80v298h185q111 0 191 -23q99 -28 155.5 -106t56.5 -207q0 -247 -208 -322q-85 -31 -220 -31h-160zM165 69h101q134 0 211 42q124 66 124 240q0 83 -37 148.5t-109 92.5q-68 27 -173 27h-117v-228h222v-66h-222v-256z" />
<glyph unicode="&#xd1;" horiz-adv-x="726" d="M161 0h-75v689h78q318 -445 383 -546q-4 157 -4 546h75v-689h-62q-311 448 -398 578q3 -146 3 -578zM248 753h-55q4 58 31 87.5t65 29.5q34 0 79 -30q38 -25 61 -25q35 0 40 57h54q-4 -60 -30.5 -90.5t-62.5 -30.5q-33 0 -82 28q-46 27 -61 27q-32 0 -39 -53z" />
<glyph unicode="&#xd2;" horiz-adv-x="809" d="M757 345q0 -153 -101 -256t-253 -103q-151 0 -251 102.5t-100 256.5q0 151 102.5 255t251.5 104q154 0 252.5 -101.5t98.5 -257.5zM681 344q0 123 -77.5 207t-198.5 84q-117 0 -196.5 -84t-79.5 -207q0 -126 80 -207.5t197 -81.5q120 0 197.5 82.5t77.5 206.5zM488 750 h-80l-189 130v4h116l153 -130v-4z" />
<glyph unicode="&#xd3;" horiz-adv-x="809" d="M757 345q0 -153 -101 -256t-253 -103q-151 0 -251 102.5t-100 256.5q0 151 102.5 255t251.5 104q154 0 252.5 -101.5t98.5 -257.5zM681 344q0 123 -77.5 207t-198.5 84q-117 0 -196.5 -84t-79.5 -207q0 -126 80 -207.5t197 -81.5q120 0 197.5 82.5t77.5 206.5zM381 750 h-80v4l152 130h116v-4z" />
<glyph unicode="&#xd4;" horiz-adv-x="809" d="M757 345q0 -153 -101 -256t-253 -103q-151 0 -251 102.5t-100 256.5q0 151 102.5 255t251.5 104q154 0 252.5 -101.5t98.5 -257.5zM681 344q0 123 -77.5 207t-198.5 84q-117 0 -196.5 -84t-79.5 -207q0 -126 80 -207.5t197 -81.5q120 0 197.5 82.5t77.5 206.5zM313 750 h-76v4l144 130h48l143 -130v-4h-75l-95 70z" />
<glyph unicode="&#xd5;" horiz-adv-x="809" d="M757 345q0 -153 -101 -256t-253 -103q-151 0 -251 102.5t-100 256.5q0 151 102.5 255t251.5 104q154 0 252.5 -101.5t98.5 -257.5zM681 344q0 123 -77.5 207t-198.5 84q-117 0 -196.5 -84t-79.5 -207q0 -126 80 -207.5t197 -81.5q120 0 197.5 82.5t77.5 206.5zM292 753 h-55q4 58 31 87.5t65 29.5q34 0 79 -30q38 -25 61 -25q35 0 40 57h54q-4 -60 -30.5 -90.5t-62.5 -30.5q-33 0 -82 28q-46 27 -61 27q-32 0 -39 -53z" />
<glyph unicode="&#xd6;" horiz-adv-x="809" d="M757 345q0 -153 -101 -256t-253 -103q-151 0 -251 102.5t-100 256.5q0 151 102.5 255t251.5 104q154 0 252.5 -101.5t98.5 -257.5zM681 344q0 123 -77.5 207t-198.5 84q-117 0 -196.5 -84t-79.5 -207q0 -126 80 -207.5t197 -81.5q120 0 197.5 82.5t77.5 206.5zM357 808 q0 -21 -13.5 -34t-34.5 -13q-20 0 -33.5 13t-13.5 34q0 23 14 36t33 13t33.5 -13t14.5 -36zM536 808q0 -21 -13.5 -34t-34.5 -13q-20 0 -33.5 13t-13.5 34q0 23 14 36t34 13q18 0 32.5 -13t14.5 -36z" />
<glyph unicode="&#xd7;" horiz-adv-x="731" d="M177 81l-40 42l180 179l-180 182l42 43l180 -181l180 180l40 -41l-180 -180l179 -179l-42 -43l-179 179z" />
<glyph unicode="&#xd8;" horiz-adv-x="809" d="M183 -41h-63l64 100q-62 49 -97 123.5t-35 162.5q0 151 102.5 255t251.5 104q92 0 168 -39l49 75h65l-68 -104q65 -49 101 -124t36 -167q0 -153 -101 -256t-253 -103q-95 0 -174 44zM681 344q0 69 -26.5 129t-74.5 100l-312 -483q61 -35 138 -35q120 0 197.5 82.5 t77.5 206.5zM129 344q0 -138 95 -222l311 481q-61 32 -130 32q-117 0 -196.5 -84t-79.5 -207z" />
<glyph unicode="&#xd9;" horiz-adv-x="727" d="M634 689v-390q0 -132 -36 -193q-31 -52 -93.5 -86t-146.5 -34q-88 0 -153 32t-95 93q-29 58 -29 186v392h77v-379q0 -120 29 -174q19 -35 64 -57.5t108 -22.5q115 0 168 78q34 50 34 172v383h73zM444 750h-80l-189 130v4h116l153 -130v-4z" />
<glyph unicode="&#xda;" horiz-adv-x="727" d="M634 689v-390q0 -132 -36 -193q-31 -52 -93.5 -86t-146.5 -34q-88 0 -153 32t-95 93q-29 58 -29 186v392h77v-379q0 -120 29 -174q19 -35 64 -57.5t108 -22.5q115 0 168 78q34 50 34 172v383h73zM354 750h-80v4l152 130h116v-4z" />
<glyph unicode="&#xdb;" horiz-adv-x="727" d="M634 689v-390q0 -132 -36 -193q-31 -52 -93.5 -86t-146.5 -34q-88 0 -153 32t-95 93q-29 58 -29 186v392h77v-379q0 -120 29 -174q19 -35 64 -57.5t108 -22.5q115 0 168 78q34 50 34 172v383h73zM266 750h-76v4l144 130h48l143 -130v-4h-75l-95 70z" />
<glyph unicode="&#xdc;" horiz-adv-x="727" d="M634 689v-390q0 -132 -36 -193q-31 -52 -93.5 -86t-146.5 -34q-88 0 -153 32t-95 93q-29 58 -29 186v392h77v-379q0 -120 29 -174q19 -35 64 -57.5t108 -22.5q115 0 168 78q34 50 34 172v383h73zM310 808q0 -21 -13.5 -34t-34.5 -13q-20 0 -33.5 13t-13.5 34q0 23 14 36 t33 13t33.5 -13t14.5 -36zM489 808q0 -21 -13.5 -34t-34.5 -13q-20 0 -33.5 13t-13.5 34q0 23 14 36t34 13q18 0 32.5 -13t14.5 -36z" />
<glyph unicode="&#xdd;" horiz-adv-x="629" d="M342 0h-77v278l-262 411h92q163 -257 210 -340q62 105 215 340h91l-269 -411v-278zM305 750h-80v4l152 130h116v-4z" />
<glyph unicode="&#xde;" horiz-adv-x="608" d="M162 0h-76v689h76v-122h135q98 0 158 -24q50 -19 78 -67t28 -114q0 -155 -128 -198q-55 -18 -140 -18h-131v-146zM162 213h125q94 0 135 23q61 32 61 123q0 88 -61 117q-45 23 -128 23h-132v-286z" />
<glyph unicode="&#xdf;" horiz-adv-x="612" d="M152 0h-71v474q0 120 34 176q27 43 75.5 66.5t106.5 23.5q52 0 91.5 -17t61 -44t31.5 -57t10 -61q0 -140 -127 -186q83 -5 133.5 -54t50.5 -136q0 -89 -52 -143.5t-143 -54.5q-83 0 -133 36v73h4q47 -42 126 -42q57 0 90.5 33t33.5 98q0 147 -209 147h-17v66h16 q68 0 109.5 42t41.5 112q0 51 -30.5 87t-88.5 36q-79 0 -116 -53q-28 -44 -28 -140v-482z" />
<glyph unicode="&#xe0;" horiz-adv-x="539" d="M535 5q-21 -12 -56 -12q-78 0 -90 68q-52 -74 -163 -74q-81 0 -130 42t-49 108q0 94 93 130q60 24 165 24q40 0 74 -6v42q0 49 -20 73q-31 38 -102 38q-40 0 -89.5 -16.5t-80.5 -49.5h-4v73q36 31 87 47t100 16q90 0 138 -47q23 -23 33.5 -53.5t10.5 -83.5 q0 -18 -0.5 -83t-0.5 -87q0 -56 6 -72q10 -23 38 -23q22 0 40 8v-62zM380 122q-1 19 -1 103q-39 7 -79 7q-74 0 -115 -14q-63 -20 -63 -79q0 -38 31.5 -62t85.5 -24q94 0 141 69zM321 577h-69l-164 161v4h104l129 -161v-4z" />
<glyph unicode="&#xe1;" horiz-adv-x="539" d="M535 5q-21 -12 -56 -12q-78 0 -90 68q-52 -74 -163 -74q-81 0 -130 42t-49 108q0 94 93 130q60 24 165 24q40 0 74 -6v42q0 49 -20 73q-31 38 -102 38q-40 0 -89.5 -16.5t-80.5 -49.5h-4v73q36 31 87 47t100 16q90 0 138 -47q23 -23 33.5 -53.5t10.5 -83.5 q0 -18 -0.5 -83t-0.5 -87q0 -56 6 -72q10 -23 38 -23q22 0 40 8v-62zM380 122q-1 19 -1 103q-39 7 -79 7q-74 0 -115 -14q-63 -20 -63 -79q0 -38 31.5 -62t85.5 -24q94 0 141 69zM258 577h-68v4l128 161h100v-4z" />
<glyph unicode="&#xe2;" horiz-adv-x="539" d="M535 5q-21 -12 -56 -12q-78 0 -90 68q-52 -74 -163 -74q-81 0 -130 42t-49 108q0 94 93 130q60 24 165 24q40 0 74 -6v42q0 49 -20 73q-31 38 -102 38q-40 0 -89.5 -16.5t-80.5 -49.5h-4v73q36 31 87 47t100 16q90 0 138 -47q23 -23 33.5 -53.5t10.5 -83.5 q0 -18 -0.5 -83t-0.5 -87q0 -56 6 -72q10 -23 38 -23q22 0 40 8v-62zM380 122q-1 19 -1 103q-39 7 -79 7q-74 0 -115 -14q-63 -20 -63 -79q0 -38 31.5 -62t85.5 -24q94 0 141 69zM170 575h-66v4l133 157h42l134 -157v-4h-69l-89 89z" />
<glyph unicode="&#xe3;" horiz-adv-x="539" d="M535 5q-21 -12 -56 -12q-78 0 -90 68q-52 -74 -163 -74q-81 0 -130 42t-49 108q0 94 93 130q60 24 165 24q40 0 74 -6v42q0 49 -20 73q-31 38 -102 38q-40 0 -89.5 -16.5t-80.5 -49.5h-4v73q36 31 87 47t100 16q90 0 138 -47q23 -23 33.5 -53.5t10.5 -83.5 q0 -18 -0.5 -83t-0.5 -87q0 -56 6 -72q10 -23 38 -23q22 0 40 8v-62zM380 122q-1 19 -1 103q-39 7 -79 7q-74 0 -115 -14q-63 -20 -63 -79q0 -38 31.5 -62t85.5 -24q94 0 141 69zM152 596h-53q4 58 30 88t64 30q31 0 74 -29q36 -26 57 -26q18 0 26 12t12 45h53 q-4 -60 -29.5 -91.5t-59.5 -31.5q-30 0 -78 28q-46 27 -58 27q-31 0 -38 -52z" />
<glyph unicode="&#xe4;" horiz-adv-x="539" d="M535 5q-21 -12 -56 -12q-78 0 -90 68q-52 -74 -163 -74q-81 0 -130 42t-49 108q0 94 93 130q60 24 165 24q40 0 74 -6v42q0 49 -20 73q-31 38 -102 38q-40 0 -89.5 -16.5t-80.5 -49.5h-4v73q36 31 87 47t100 16q90 0 138 -47q23 -23 33.5 -53.5t10.5 -83.5 q0 -18 -0.5 -83t-0.5 -87q0 -56 6 -72q10 -23 38 -23q22 0 40 8v-62zM380 122q-1 19 -1 103q-39 7 -79 7q-74 0 -115 -14q-63 -20 -63 -79q0 -38 31.5 -62t85.5 -24q94 0 141 69zM221 656q0 -21 -13 -34t-34 -13t-34.5 13t-13.5 34q0 23 14.5 36t33.5 13q18 0 32.5 -13 t14.5 -36zM394 656q0 -21 -13.5 -34t-34.5 -13q-20 0 -33.5 13t-13.5 34q0 23 14 36t33 13t33.5 -13t14.5 -36z" />
<glyph unicode="&#xe5;" horiz-adv-x="539" d="M535 5q-21 -12 -56 -12q-78 0 -90 68q-52 -74 -163 -74q-81 0 -130 42t-49 108q0 94 93 130q60 24 165 24q40 0 74 -6v42q0 49 -20 73q-31 38 -102 38q-40 0 -89.5 -16.5t-80.5 -49.5h-4v73q36 31 87 47t100 16q90 0 138 -47q23 -23 33.5 -53.5t10.5 -83.5 q0 -18 -0.5 -83t-0.5 -87q0 -56 6 -72q10 -23 38 -23q22 0 40 8v-62zM380 122q-1 19 -1 103q-39 7 -79 7q-74 0 -115 -14q-63 -20 -63 -79q0 -38 31.5 -62t85.5 -24q94 0 141 69zM368 669q0 -42 -30 -71t-73 -29q-44 0 -73 28.5t-29 71.5q0 44 29.5 72t74.5 28t73 -28 t28 -72zM330 670q0 28 -18 46.5t-47 18.5t-46.5 -19t-17.5 -47t17.5 -47t48.5 -19q28 0 45.5 19.5t17.5 47.5z" />
<glyph unicode="&#xe6;" horiz-adv-x="874" d="M833 49q-30 -28 -83 -45t-106 -17q-141 0 -212 92q-80 -92 -207 -92q-80 0 -129 42t-49 109q0 94 89 129q56 23 170 23q42 0 78 -6v35q0 51 -19 79q-26 40 -105 40q-41 0 -90 -16t-81 -47h-4v70q77 63 187 63q132 0 165 -92q29 43 79.5 67.5t105.5 24.5q108 0 165 -60.5 t59 -170.5q0 -33 -3 -52h-389q3 -76 57 -123.5t140 -47.5q106 0 178 68h4v-73zM454 287h318v7q0 70 -39.5 110t-114.5 40q-60 0 -108.5 -40.5t-55.5 -116.5zM403 130q-15 33 -18 95q-33 6 -83 6q-79 0 -122 -15q-57 -21 -57 -75q0 -39 30 -63.5t84 -24.5q46 0 94 22.5 t72 54.5z" />
<glyph unicode="&#xe7;" horiz-adv-x="509" d="M193 -229v52h4q27 -21 65 -21q63 0 63 48q0 20 -16.5 33t-46.5 13q-22 0 -38 -6l-3 2l29 100q-89 17 -146 84.5t-57 167.5q0 115 76 189.5t191 74.5q48 0 91.5 -14.5t66.5 -38.5v-81h-4q-24 30 -68 48t-88 18q-79 0 -135 -51.5t-56 -141.5q0 -93 57.5 -143t133.5 -50 q99 0 158 65h4v-77q-67 -55 -170 -55h-4l-15 -48h5q43 0 70.5 -22.5t27.5 -63.5q0 -48 -32.5 -75t-89.5 -27q-46 0 -73 20z" />
<glyph unicode="&#xe8;" horiz-adv-x="557" d="M500 46q-29 -26 -83 -42.5t-106 -16.5q-120 0 -192 71t-72 186q0 121 73 192.5t173 71.5q106 0 163 -61.5t58 -169.5q0 -36 -3 -55h-389q5 -74 57.5 -121t138.5 -47q109 0 178 66h4v-74zM440 285v8q0 71 -39.5 111t-112.5 40q-58 0 -107.5 -40t-57.5 -119h317zM355 577 h-69l-164 161v4h104l129 -161v-4z" />
<glyph unicode="&#xe9;" horiz-adv-x="557" d="M500 46q-29 -26 -83 -42.5t-106 -16.5q-120 0 -192 71t-72 186q0 121 73 192.5t173 71.5q106 0 163 -61.5t58 -169.5q0 -36 -3 -55h-389q5 -74 57.5 -121t138.5 -47q109 0 178 66h4v-74zM440 285v8q0 71 -39.5 111t-112.5 40q-58 0 -107.5 -40t-57.5 -119h317zM270 577 h-68v4l128 161h100v-4z" />
<glyph unicode="&#xea;" horiz-adv-x="557" d="M500 46q-29 -26 -83 -42.5t-106 -16.5q-120 0 -192 71t-72 186q0 121 73 192.5t173 71.5q106 0 163 -61.5t58 -169.5q0 -36 -3 -55h-389q5 -74 57.5 -121t138.5 -47q109 0 178 66h4v-74zM440 285v8q0 71 -39.5 111t-112.5 40q-58 0 -107.5 -40t-57.5 -119h317zM205 575 h-66v4l133 157h42l134 -157v-4h-69l-89 89z" />
<glyph unicode="&#xeb;" horiz-adv-x="557" d="M500 46q-29 -26 -83 -42.5t-106 -16.5q-120 0 -192 71t-72 186q0 121 73 192.5t173 71.5q106 0 163 -61.5t58 -169.5q0 -36 -3 -55h-389q5 -74 57.5 -121t138.5 -47q109 0 178 66h4v-74zM440 285v8q0 71 -39.5 111t-112.5 40q-58 0 -107.5 -40t-57.5 -119h317zM250 656 q0 -21 -13 -34t-34 -13t-34.5 13t-13.5 34q0 23 14.5 36t33.5 13q18 0 32.5 -13t14.5 -36zM423 656q0 -21 -13.5 -34t-34.5 -13q-20 0 -33.5 13t-13.5 34q0 23 14 36t33 13t33.5 -13t14.5 -36z" />
<glyph unicode="&#xec;" horiz-adv-x="259" d="M184 577h-69l-164 161v4h104l129 -161v-4zM156 0h-73v494h73v-494z" />
<glyph unicode="&#xed;" horiz-adv-x="259" d="M121 577h-68v4l128 161h100v-4zM168 0h-73v494h73v-494z" />
<glyph unicode="&#xee;" horiz-adv-x="259" d="M165 0h-73v494h73v-494zM37 575h-66v4l133 157h42l134 -157v-4h-69l-89 89z" />
<glyph unicode="&#xef;" horiz-adv-x="259" d="M84 656q0 -21 -13 -34t-34 -13t-34.5 13t-13.5 34q0 23 14.5 36t33.5 13q18 0 32.5 -13t14.5 -36zM257 656q0 -21 -13.5 -34t-34.5 -13q-20 0 -33.5 13t-13.5 34q0 23 14 36t33 13t33.5 -13t14.5 -36zM166 0h-73v494h73v-494z" />
<glyph unicode="&#xf0;" horiz-adv-x="616" d="M501 661l-59 -34q123 -130 123 -355q0 -141 -75 -213t-184 -72q-105 0 -182 66t-77 196q0 81 41 140.5t98.5 86t120.5 26.5q52 0 97.5 -20.5t70.5 -58.5q-6 35 -28.5 82t-63.5 88l-117 -67v63l74 42q-55 42 -127 62l20 53q97 -26 166 -80l102 58v-63zM490 251 q0 93 -53.5 138.5t-132.5 45.5q-74 0 -128.5 -49.5t-54.5 -136.5q0 -98 53.5 -146.5t130.5 -48.5q78 0 131.5 50t53.5 147z" />
<glyph unicode="&#xf1;" horiz-adv-x="595" d="M153 0h-72v494h71v-81q24 41 71.5 67t110.5 26q67 0 109 -28t54 -78q10 -36 10 -109v-291h-72v280q0 75 -15 102q-28 55 -105 55q-49 0 -95 -26t-67 -66v-345zM185 596h-53q4 58 30 88t64 30q31 0 74 -29q36 -26 57 -26q18 0 26 12t12 45h53q-4 -60 -29.5 -91.5 t-59.5 -31.5q-30 0 -78 28q-46 27 -58 27q-31 0 -38 -52z" />
<glyph unicode="&#xf2;" horiz-adv-x="615" d="M565 247q0 -110 -74.5 -185t-185.5 -75t-184.5 74.5t-73.5 185.5t75.5 186t184.5 75q113 0 185.5 -73t72.5 -188zM490 247q0 82 -51.5 137.5t-132.5 55.5q-79 0 -132 -55.5t-53 -137.5q0 -84 53 -138t133 -54t131.5 55.5t51.5 136.5zM373 577h-69l-164 161v4h104 l129 -161v-4z" />
<glyph unicode="&#xf3;" horiz-adv-x="615" d="M565 247q0 -110 -74.5 -185t-185.5 -75t-184.5 74.5t-73.5 185.5t75.5 186t184.5 75q113 0 185.5 -73t72.5 -188zM490 247q0 82 -51.5 137.5t-132.5 55.5q-79 0 -132 -55.5t-53 -137.5q0 -84 53 -138t133 -54t131.5 55.5t51.5 136.5zM288 577h-68v4l128 161h100v-4z" />
<glyph unicode="&#xf4;" horiz-adv-x="615" d="M565 247q0 -110 -74.5 -185t-185.5 -75t-184.5 74.5t-73.5 185.5t75.5 186t184.5 75q113 0 185.5 -73t72.5 -188zM490 247q0 82 -51.5 137.5t-132.5 55.5q-79 0 -132 -55.5t-53 -137.5q0 -84 53 -138t133 -54t131.5 55.5t51.5 136.5zM213 575h-66v4l133 157h42l134 -157 v-4h-69l-89 89z" />
<glyph unicode="&#xf5;" horiz-adv-x="615" d="M565 247q0 -110 -74.5 -185t-185.5 -75t-184.5 74.5t-73.5 185.5t75.5 186t184.5 75q113 0 185.5 -73t72.5 -188zM490 247q0 82 -51.5 137.5t-132.5 55.5q-79 0 -132 -55.5t-53 -137.5q0 -84 53 -138t133 -54t131.5 55.5t51.5 136.5zM193 596h-53q4 58 30 88t64 30 q31 0 74 -29q36 -26 57 -26q18 0 26 12t12 45h53q-4 -60 -29.5 -91.5t-59.5 -31.5q-30 0 -78 28q-46 27 -58 27q-31 0 -38 -52z" />
<glyph unicode="&#xf6;" horiz-adv-x="615" d="M565 247q0 -110 -74.5 -185t-185.5 -75t-184.5 74.5t-73.5 185.5t75.5 186t184.5 75q113 0 185.5 -73t72.5 -188zM490 247q0 82 -51.5 137.5t-132.5 55.5q-79 0 -132 -55.5t-53 -137.5q0 -84 53 -138t133 -54t131.5 55.5t51.5 136.5zM259 656q0 -21 -13 -34t-34 -13 t-34.5 13t-13.5 34q0 23 14.5 36t33.5 13q18 0 32.5 -13t14.5 -36zM432 656q0 -21 -13.5 -34t-34.5 -13q-20 0 -33.5 13t-13.5 34q0 23 14 36t33 13t33.5 -13t14.5 -36z" />
<glyph unicode="&#xf7;" horiz-adv-x="700" d="M390 455q0 -21 -11.5 -31.5t-29.5 -10.5q-39 0 -39 42q0 44 41 44q39 0 39 -44zM610 267h-520v57h520v-57zM390 128q0 -21 -11.5 -31.5t-29.5 -10.5q-17 0 -28 10.5t-11 31.5q0 44 41 44q39 0 39 -44z" />
<glyph unicode="&#xf8;" horiz-adv-x="615" d="M141 -49h-56l58 90q-96 75 -96 206q0 111 75.5 186t184.5 75q62 0 119 -26l42 65h56l-58 -90q99 -73 99 -210q0 -110 -74.5 -185t-185.5 -75q-65 0 -123 29zM490 247q0 94 -63 149l-207 -321q40 -20 87 -20q80 0 131.5 55.5t51.5 136.5zM121 247q0 -91 60 -146l206 321 q-39 18 -81 18q-79 0 -132 -55.5t-53 -137.5z" />
<glyph unicode="&#xf9;" horiz-adv-x="595" d="M503 0h-69v69q-56 -82 -177 -82q-70 0 -112.5 28t-56.5 78q-11 40 -11 118v282h72v-272q0 -77 15 -109q25 -56 109 -56q48 0 91 23.5t67 58.5v355h72v-493zM353 577h-69l-164 161v4h104l129 -161v-4z" />
<glyph unicode="&#xfa;" horiz-adv-x="595" d="M503 0h-69v69q-56 -82 -177 -82q-70 0 -112.5 28t-56.5 78q-11 40 -11 118v282h72v-272q0 -77 15 -109q25 -56 109 -56q48 0 91 23.5t67 58.5v355h72v-493zM284 577h-68v4l128 161h100v-4z" />
<glyph unicode="&#xfb;" horiz-adv-x="595" d="M503 0h-69v69q-56 -82 -177 -82q-70 0 -112.5 28t-56.5 78q-11 40 -11 118v282h72v-272q0 -77 15 -109q25 -56 109 -56q48 0 91 23.5t67 58.5v355h72v-493zM201 575h-66v4l133 157h42l134 -157v-4h-69l-89 89z" />
<glyph unicode="&#xfc;" horiz-adv-x="595" d="M503 0h-69v69q-56 -82 -177 -82q-70 0 -112.5 28t-56.5 78q-11 40 -11 118v282h72v-272q0 -77 15 -109q25 -56 109 -56q48 0 91 23.5t67 58.5v355h72v-493zM249 656q0 -21 -13 -34t-34 -13t-34.5 13t-13.5 34q0 23 14.5 36t33.5 13q18 0 32.5 -13t14.5 -36zM422 656 q0 -21 -13.5 -34t-34.5 -13q-20 0 -33.5 13t-13.5 34q0 23 14 36t33 13t33.5 -13t14.5 -36z" />
<glyph unicode="&#xfd;" horiz-adv-x="508" d="M17 -196v68h4q24 -19 72 -19q47 0 73 38q17 25 35 76l14 36l-209 491h82q117 -277 166 -411q36 102 157 411h79l-207 -511q-42 -103 -63 -134q-42 -63 -123 -63q-50 0 -80 18zM243 577h-68v4l128 161h100v-4z" />
<glyph unicode="&#xfe;" horiz-adv-x="643" d="M153 -194h-72v922h72v-327q23 46 77.5 76.5t117.5 30.5q101 0 171.5 -68t70.5 -187q0 -124 -74 -192t-179 -68q-56 0 -107.5 24t-76.5 65v-276zM153 176q24 -58 74.5 -86.5t107.5 -28.5q75 0 128 48.5t53 143.5q0 93 -55.5 140t-124.5 47q-57 0 -109 -30.5t-74 -90.5 v-143z" />
<glyph unicode="&#xff;" horiz-adv-x="508" d="M17 -196v68h4q24 -19 72 -19q47 0 73 38q17 25 35 76l14 36l-209 491h82q117 -277 166 -411q36 102 157 411h79l-207 -511q-42 -103 -63 -134q-42 -63 -123 -63q-50 0 -80 18zM207 656q0 -21 -13 -34t-34 -13t-34.5 13t-13.5 34q0 23 14.5 36t33.5 13q18 0 32.5 -13 t14.5 -36zM380 656q0 -21 -13.5 -34t-34.5 -13q-20 0 -33.5 13t-13.5 34q0 23 14 36t33 13t33.5 -13t14.5 -36z" />
<glyph unicode="&#x152;" horiz-adv-x="1107" d="M1078 0h-424v106q-79 -120 -251 -120q-147 0 -248.5 97.5t-101.5 259.5q0 109 50.5 193t130.5 126t174 42q171 0 246 -113v98h408v-70h-331v-227h311v-68h-311v-255h347v-69zM654 207v277q-31 73 -95 112t-154 39q-118 0 -196.5 -80.5t-78.5 -206.5q0 -133 78.5 -212.5 t196.5 -79.5q86 0 151 39t98 112z" />
<glyph unicode="&#x153;" horiz-adv-x="973" d="M933 46q-32 -28 -83.5 -43.5t-103.5 -15.5q-163 0 -230 122q-65 -122 -213 -122q-102 0 -179 68.5t-77 192.5q0 120 79 190t178 70q158 0 213 -119q29 57 86 88t118 31q109 0 166 -61t59 -170q0 -29 -3 -55h-388q5 -75 56.5 -121.5t140.5 -46.5q108 0 177 66h4v-74z M483 251q0 93 -53 141t-129 48q-73 0 -126.5 -50.5t-53.5 -139.5q0 -95 54.5 -145t127.5 -50q76 0 128 50t52 146zM556 285h316v7q0 71 -40 111.5t-114 40.5q-57 0 -106.5 -41.5t-55.5 -117.5z" />
<glyph unicode="&#x178;" horiz-adv-x="629" d="M342 0h-77v278l-262 411h92q163 -257 210 -340q62 105 215 340h91l-269 -411v-278zM256 808q0 -21 -13.5 -34t-34.5 -13q-20 0 -33.5 13t-13.5 34q0 23 14 36t33 13t33.5 -13t14.5 -36zM435 808q0 -21 -13.5 -34t-34.5 -13q-20 0 -33.5 13t-13.5 34q0 23 14 36t34 13 q18 0 32.5 -13t14.5 -36z" />
<glyph unicode="&#x2c6;" horiz-adv-x="210" d="M12 575h-66v4l133 157h42l134 -157v-4h-69l-89 89z" />
<glyph unicode="&#x2dc;" horiz-adv-x="210" d="M-6 596h-53q4 58 30 88t64 30q31 0 74 -29q36 -26 57 -26q18 0 26 12t12 45h53q-4 -60 -29.5 -91.5t-59.5 -31.5q-30 0 -78 28q-46 27 -58 27q-31 0 -38 -52z" />
<glyph unicode="&#x2000;" horiz-adv-x="457" />
<glyph unicode="&#x2001;" horiz-adv-x="915" />
<glyph unicode="&#x2002;" horiz-adv-x="457" />
<glyph unicode="&#x2003;" horiz-adv-x="915" />
<glyph unicode="&#x2004;" horiz-adv-x="305" />
<glyph unicode="&#x2005;" horiz-adv-x="228" />
<glyph unicode="&#x2006;" horiz-adv-x="152" />
<glyph unicode="&#x2007;" horiz-adv-x="152" />
<glyph unicode="&#x2008;" horiz-adv-x="114" />
<glyph unicode="&#x2009;" horiz-adv-x="183" />
<glyph unicode="&#x200a;" horiz-adv-x="50" />
<glyph unicode="&#x2010;" horiz-adv-x="321" d="M280 239h-241v67h241v-67z" />
<glyph unicode="&#x2011;" horiz-adv-x="321" d="M280 239h-241v67h241v-67z" />
<glyph unicode="&#x2012;" horiz-adv-x="321" d="M280 239h-241v67h241v-67z" />
<glyph unicode="&#x2013;" horiz-adv-x="534" d="M497 240h-458v61h458v-61z" />
<glyph unicode="&#x2014;" horiz-adv-x="836" d="M796 240h-757v61h757v-61z" />
<glyph unicode="&#x2018;" horiz-adv-x="187" d="M116 719h62v-4q-35 -30 -58.5 -76.5t-23.5 -99.5q0 -47 15 -81h-78q-13 29 -13 73q0 58 28 107.5t68 80.5z" />
<glyph unicode="&#x2019;" horiz-adv-x="187" d="M53 458h-62v4q35 29 58.5 75.5t23.5 100.5q0 46 -15 81h78q13 -29 13 -73q0 -58 -28 -108t-68 -80z" />
<glyph unicode="&#x201a;" horiz-adv-x="186" d="M53 -143h-62v4q35 30 58.5 76.5t23.5 100.5q0 46 -15 81h78q13 -30 13 -74q0 -58 -28 -107.5t-68 -80.5z" />
<glyph unicode="&#x201c;" horiz-adv-x="366" d="M282 719h63v-4q-36 -30 -59.5 -76.5t-23.5 -99.5q0 -47 15 -81h-78q-13 29 -13 73q0 57 28 107t68 81zM116 719h62v-4q-35 -30 -58.5 -76.5t-23.5 -99.5q0 -47 15 -81h-78q-13 29 -13 73q0 58 28 107.5t68 80.5z" />
<glyph unicode="&#x201d;" horiz-adv-x="366" d="M53 458h-62v4q35 29 58.5 75.5t23.5 100.5q0 46 -15 81h78q13 -29 13 -73q0 -58 -28 -108t-68 -80zM220 458h-63v4q36 29 59.5 75.5t23.5 100.5q0 46 -15 81h78q12 -27 12 -73q0 -58 -27.5 -108t-67.5 -80z" />
<glyph unicode="&#x201e;" horiz-adv-x="366" d="M53 -143h-62v4q35 30 58.5 76.5t23.5 100.5q0 46 -15 81h78q13 -30 13 -74q0 -58 -28 -107.5t-68 -80.5zM220 -143h-63v4q36 30 59.5 76.5t23.5 100.5q0 46 -15 81h78q12 -28 12 -74q0 -57 -27.5 -107t-67.5 -81z" />
<glyph unicode="&#x2022;" horiz-adv-x="349" d="M282 254q0 -51 -33.5 -83.5t-82.5 -32.5q-50 0 -83.5 31.5t-33.5 84.5q0 58 35.5 88.5t81.5 30.5t81 -30.5t35 -88.5z" />
<glyph unicode="&#x2026;" horiz-adv-x="879" d="M200 44q0 -24 -15.5 -39.5t-39.5 -15.5t-40 15t-16 40q0 27 17 42t39 15t38.5 -15t16.5 -42zM485 44q0 -24 -15.5 -39.5t-39.5 -15.5t-40 15t-16 40q0 27 17 42t39 15t38.5 -15t16.5 -42zM770 44q0 -24 -16 -39.5t-40 -15.5t-40 15t-16 40q0 27 17 42t39 15t39 -15 t17 -42z" />
<glyph unicode="&#x202f;" horiz-adv-x="183" />
<glyph unicode="&#x2039;" horiz-adv-x="287" d="M240 68h-78l-139 184l138 184h78l-136 -184z" />
<glyph unicode="&#x203a;" horiz-adv-x="287" d="M30 436h78l139 -184l-138 -184h-78l136 184z" />
<glyph unicode="&#x205f;" horiz-adv-x="228" />
<glyph unicode="&#x20ac;" horiz-adv-x="647" d="M482 238h-273q39 -182 226 -182q103 0 177 66h4v-75q-32 -27 -83.5 -44t-107.5 -17q-122 0 -197.5 65t-96.5 187h-82v45h76q-2 16 -2 51q0 25 1 38h-75v45h80q21 126 104 194t202 68q121 0 177 -53v-80h-4q-28 30 -76.5 47.5t-97.5 17.5q-90 0 -150.5 -47.5t-77.5 -146.5 h276v-45h-281q-1 -12 -1 -35q0 -20 2 -54h280v-45z" />
<glyph unicode="&#x2122;" horiz-adv-x="877" d="M221 329h-55v313h-115v47h289v-47h-119v-313zM459 329h-53v360h80q78 -169 102 -230q23 61 98 230h80v-360h-56q0 264 1 308q-8 -24 -105 -245h-41q-104 234 -109 246q3 -78 3 -309z" />
<glyph unicode="&#x25fc;" horiz-adv-x="495" d="M0 495h495v-495h-495v495z" />
</font>
</defs>
</svg>
