<?xml version="1.0" encoding="utf-8"?>
<!-- Generator: Adobe Illustrator 15.0.0, SVG Export Plug-In . SVG Version: 6.00 Build 0)  -->
<!DOCTYPE svg PUBLIC "-//W3C//DTD SVG 1.1//EN" "http://www.w3.org/Graphics/SVG/1.1/DTD/svg11.dtd">
<svg version="1.1"
	 id="Layer_1" xmlns:cc="http://creativecommons.org/ns#" xmlns:svg="http://www.w3.org/2000/svg" xmlns:rdf="http://www.w3.org/1999/02/22-rdf-syntax-ns#" xmlns:dc="http://purl.org/dc/elements/1.1/"
	 xmlns="http://www.w3.org/2000/svg" xmlns:xlink="http://www.w3.org/1999/xlink" x="0px" y="0px" width="100%" height="100%" preserveAspectRatio="xMinYMin" 
	 viewBox="0 0 400 400" enable-background="new 0 0 400 400" xml:space="preserve">
<g id="Layer_7" transform="translate(0,1.3329999)" display="none">
	<g id="g4" display="inline">
		<path id="path6" d="M431.984,71.004h33.072l42.445,165.935c5.829,23.278,10.082,44.354,12.758,63.213
			c3.279-22.418,8.141-44.35,14.579-65.781l47.737-163.36h32.802l50.611,165.093c5.946,18.916,10.974,40.271,15.063,64.063
			c2.355-17.393,6.816-38.59,13.393-63.578L737.213,71.01h33.076l-71.85,268.657h-30.875l-53.406-180.144
			c-2.361-7.982-5.326-17.987-8.897-30.021c-3.563-12.034-5.424-19.282-5.536-21.74c-2.689,16.171-6.975,33.876-12.852,53.108
			l-52.494,178.801h-30.834L431.984,71.004z"/>
	</g>
</g>
<g id="Layer_3" transform="translate(0,1.3329999)" display="none">
	<g id="g9" display="inline">
		<path id="path11" d="M500.803,339.665V71.004h35.279l146.442,224.558h1.452c-0.244-3.429-0.795-14.086-1.637-31.971
			c-0.603-13.966-0.91-24.811-0.91-32.519c0-2.205,0-4.163,0-5.868V71.02h28.854v268.657H675L528.18,114.186h-1.471
			c1.958,26.463,2.939,50.718,2.939,72.771v152.708H500.803L500.803,339.665z"/>
	</g>
</g>
<g id="Layer_4" transform="translate(0,1.3329999)" display="none">
	<g id="g14" display="inline">
		<path id="path16" d="M520.766,333.886v-29.961c11.024,4.66,23.029,8.352,36.021,11.037c12.98,2.693,25.847,4.05,38.593,4.05
			c20.862,0,36.57-3.952,47.123-11.874c10.563-7.918,15.837-18.916,15.837-33.047c0-9.324-1.871-16.953-5.613-22.913
			c-3.743-5.952-10.008-11.448-18.777-16.474c-8.777-5.026-22.119-10.742-40.039-17.121c-25.036-8.958-42.856-19.574-53.451-31.845
			c-10.599-12.266-15.896-28.276-15.896-48.037c0-20.724,7.753-37.221,23.266-49.481c15.51-12.261,36.021-18.392,61.547-18.392
			c26.635,0,51.132,4.9,73.486,14.7l-9.625,27.221c-22.146-9.329-43.684-13.989-64.602-13.989c-16.567,0-29.521,3.563-38.848,10.676
			c-9.323,7.118-13.986,16.995-13.986,29.637c0,9.324,1.716,16.963,5.152,22.918c3.434,5.953,9.229,11.411,17.396,16.381
			c8.159,4.971,20.647,10.46,37.456,16.474c28.229,10.065,47.579,20.863,58.061,32.397c10.475,11.539,15.714,26.511,15.714,44.91
			c0,23.556-8.559,41.927-25.658,55.101c-17.104,13.173-40.321,19.772-69.646,19.772
			C562.413,346.036,537.916,341.985,520.766,333.886L520.766,333.886z"/>
	</g>
</g>
<g id="Layer_5" transform="translate(0,1.3329999)" display="none">
	<g id="g19" display="inline">
		<path id="path21" d="M492.218,71.009h33.077l61.742,173.833c7.104,19.97,12.738,39.392,16.908,58.259
			c4.41-19.851,10.152-39.632,17.271-59.354l61.374-172.74h33.623l-96.844,268.659h-30.861L492.218,71.009z"/>
	</g>
</g>
<g id="Layer_6" transform="translate(0,1.3329999)" display="none">
	<g id="g24" display="inline">
		<path id="path26" d="M504.708,208.841c0-27.668,5.116-51.908,15.354-72.721c10.237-20.811,25.125-36.85,44.65-48.113
			c19.528-11.26,42.532-16.895,68.989-16.895c28.177,0,52.8,5.145,73.868,15.437l-13.229,26.816
			c-20.339-9.547-40.676-14.321-61.016-14.321c-29.531,0-52.84,9.826-69.918,29.471c-17.09,19.645-25.634,46.542-25.634,80.698
			c0,35.144,8.233,62.272,24.716,81.429c16.477,19.155,39.968,28.731,70.475,28.731c18.743,0,40.119-3.365,64.127-10.095v27.479
			c-18.621,7.031-41.592,10.546-68.906,10.546c-39.581,0-70.047-12.015-91.423-36.037
			C515.395,287.237,504.708,253.093,504.708,208.841z"/>
	</g>
</g>
<path fill="#686868" d="M388.822,102.178c-3.276-4.369-7.878-7.723-13.807-10.063c0.312,5.461-0.078,9.908-1.17,13.34
	l-70.207,230.981c-1.248,4.057-3.979,7.294-8.191,9.712c-4.212,2.418-8.581,3.627-13.105,3.627H66.339
	c-18.722,0-29.955-5.461-33.7-16.382c-1.56-4.212-1.482-7.566,0.234-10.063c1.716-2.341,4.68-3.511,8.893-3.511h203.366
	c14.51,0,24.533-2.691,30.072-8.073c5.538-5.384,11.115-17.357,16.732-35.923L356.06,63.798c3.433-11.545,2.028-21.687-4.212-30.423
	c-6.241-8.736-15.134-13.105-26.679-13.105H147.077c-2.028,0-6.007,0.703-11.935,2.106l0.233-0.703
	c-4.368-0.936-8.073-1.365-11.116-1.287c-3.042,0.078-5.851,0.976-8.424,2.692c-2.575,1.716-4.642,3.549-6.202,5.499
	c-1.56,1.951-3.082,4.447-4.564,7.489c-1.482,3.042-2.73,5.851-3.745,8.425c-1.014,2.574-2.184,5.305-3.51,8.191
	c-1.327,2.886-2.614,5.266-3.862,7.137c-0.936,1.249-2.262,2.888-3.978,4.915c-1.717,2.028-3.121,3.823-4.213,5.383
	c-1.091,1.56-1.793,2.964-2.106,4.212c-0.312,1.404-0.156,3.471,0.468,6.201c0.625,2.731,0.858,4.72,0.703,5.968
	c-0.625,5.928-2.77,13.456-6.436,22.583c-3.667,9.126-6.981,15.718-9.946,19.775c-0.625,0.78-2.34,2.535-5.149,5.266
	c-2.807,2.73-4.524,5.109-5.148,7.137c-0.625,0.78-0.663,2.965-0.117,6.553c0.546,3.588,0.74,6.084,0.585,7.489
	c-0.625,5.305-2.574,12.325-5.851,21.062c-3.276,8.737-6.553,15.914-9.829,21.531c-0.468,0.936-1.794,2.729-3.979,5.382
	c-2.184,2.651-3.51,4.837-3.979,6.553c-0.312,1.248-0.273,3.432,0.117,6.552s0.351,5.461-0.117,7.021
	c-1.248,5.928-3.588,13.066-7.021,21.413c-3.432,8.346-6.943,15.484-10.531,21.412c-0.937,1.561-2.224,3.394-3.862,5.5
	s-2.925,3.94-3.861,5.499c-0.936,1.561-1.56,3.199-1.872,4.915c-0.156,0.937,0.078,2.457,0.702,4.563s0.859,3.784,0.703,5.031
	c-0.156,2.185-0.468,5.07-0.937,8.659c-0.468,3.588-0.702,5.695-0.702,6.318c-3.433,9.361-3.276,19.268,0.468,29.722
	c4.368,12.169,12.13,22.426,23.286,30.773c11.155,8.347,22.739,12.521,34.752,12.521h216.003c10.141,0,19.697-3.394,28.668-10.181
	c8.971-6.786,14.938-15.172,17.902-25.157l64.357-212.024C396.468,121.134,395.064,111.071,388.822,102.178z M139.822,102.646
	l4.915-14.978c0.625-2.027,1.911-3.783,3.862-5.265c1.949-1.483,3.938-2.224,5.967-2.224h142.287c2.184,0,3.744,0.741,4.68,2.224
	c0.936,1.481,1.093,3.237,0.468,5.265l-4.914,14.978c-0.624,2.028-1.911,3.783-3.861,5.266c-1.95,1.483-3.939,2.223-5.968,2.223
	H144.971c-2.184,0-3.744-0.74-4.681-2.223C139.354,106.429,139.199,104.674,139.822,102.646z M120.399,162.556l4.914-14.977
	c0.624-2.028,1.912-3.783,3.861-5.266c1.95-1.482,3.939-2.224,5.968-2.224h142.286c2.185,0,3.744,0.741,4.681,2.224
	c0.937,1.483,1.092,3.238,0.468,5.266l-4.914,14.977c-0.625,2.028-1.911,3.784-3.862,5.266c-1.949,1.482-3.938,2.224-5.967,2.224
	H125.547c-2.184,0-3.745-0.742-4.68-2.224C119.931,166.34,119.774,164.584,120.399,162.556z"/>
</svg>
