<?xml version="1.0" encoding="utf-8"?>
<!-- Generator: Adobe Illustrator 15.0.0, SVG Export Plug-In . SVG Version: 6.00 Build 0)  -->
<!DOCTYPE svg PUBLIC "-//W3C//DTD SVG 1.1//EN" "http://www.w3.org/Graphics/SVG/1.1/DTD/svg11.dtd">
<svg version="1.1"
	 id="Layer_1" xmlns:cc="http://creativecommons.org/ns#" xmlns:svg="http://www.w3.org/2000/svg" xmlns:rdf="http://www.w3.org/1999/02/22-rdf-syntax-ns#" xmlns:dc="http://purl.org/dc/elements/1.1/"
	 xmlns="http://www.w3.org/2000/svg" xmlns:xlink="http://www.w3.org/1999/xlink" x="0px" y="0px" width="100%" height="100%" preserveAspectRatio="xMinYMin" 
	 viewBox="0 0 400 400" enable-background="new 0 0 400 400" xml:space="preserve">
<g id="Layer_7" transform="translate(0,1.3329999)" display="none">
	<g id="g4" display="inline">
		<path id="path6" d="M431.984,71.004h33.072l42.445,165.935c5.829,23.278,10.082,44.354,12.758,63.213
			c3.279-22.418,8.141-44.35,14.579-65.781l47.737-163.36h32.802l50.611,165.093c5.946,18.916,10.974,40.271,15.063,64.063
			c2.355-17.393,6.816-38.59,13.393-63.578L737.213,71.01h33.076l-71.85,268.657h-30.875l-53.406-180.144
			c-2.361-7.982-5.326-17.987-8.897-30.021c-3.563-12.034-5.424-19.282-5.536-21.74c-2.689,16.171-6.975,33.876-12.852,53.108
			l-52.494,178.801h-30.834L431.984,71.004z"/>
	</g>
</g>
<g id="Layer_3" transform="translate(0,1.3329999)" display="none">
	<g id="g9" display="inline">
		<path id="path11" d="M500.803,339.665V71.004h35.279l146.442,224.558h1.452c-0.244-3.429-0.795-14.086-1.637-31.971
			c-0.603-13.966-0.91-24.811-0.91-32.519c0-2.205,0-4.163,0-5.868V71.02h28.854v268.657H675L528.18,114.186h-1.471
			c1.958,26.463,2.939,50.718,2.939,72.771v152.708H500.803L500.803,339.665z"/>
	</g>
</g>
<g id="Layer_4" transform="translate(0,1.3329999)" display="none">
	<g id="g14" display="inline">
		<path id="path16" d="M520.766,333.886v-29.961c11.024,4.66,23.029,8.352,36.021,11.037c12.98,2.693,25.847,4.05,38.593,4.05
			c20.862,0,36.57-3.952,47.123-11.874c10.563-7.918,15.837-18.916,15.837-33.047c0-9.324-1.871-16.953-5.613-22.913
			c-3.743-5.952-10.008-11.448-18.777-16.474c-8.777-5.026-22.119-10.742-40.039-17.121c-25.036-8.958-42.856-19.574-53.451-31.845
			c-10.599-12.266-15.896-28.276-15.896-48.037c0-20.724,7.753-37.221,23.266-49.481c15.51-12.261,36.021-18.392,61.547-18.392
			c26.635,0,51.132,4.9,73.486,14.7l-9.625,27.221c-22.146-9.329-43.684-13.989-64.602-13.989c-16.567,0-29.521,3.563-38.848,10.676
			c-9.323,7.118-13.986,16.995-13.986,29.637c0,9.324,1.716,16.963,5.152,22.918c3.434,5.953,9.229,11.411,17.396,16.381
			c8.159,4.971,20.647,10.46,37.456,16.474c28.229,10.065,47.579,20.863,58.061,32.397c10.475,11.539,15.714,26.511,15.714,44.91
			c0,23.556-8.559,41.927-25.658,55.101c-17.104,13.173-40.321,19.772-69.646,19.772
			C562.413,346.036,537.916,341.985,520.766,333.886L520.766,333.886z"/>
	</g>
</g>
<g id="Layer_5" transform="translate(0,1.3329999)" display="none">
	<g id="g19" display="inline">
		<path id="path21" d="M492.218,71.009h33.077l61.742,173.833c7.104,19.97,12.738,39.392,16.908,58.259
			c4.41-19.851,10.152-39.632,17.271-59.354l61.374-172.74h33.623l-96.844,268.659h-30.861L492.218,71.009z"/>
	</g>
</g>
<g id="Layer_6" transform="translate(0,1.3329999)" display="none">
	<g id="g24" display="inline">
		<path id="path26" d="M504.708,208.841c0-27.668,5.116-51.908,15.354-72.721c10.237-20.811,25.125-36.85,44.65-48.113
			c19.528-11.26,42.532-16.895,68.989-16.895c28.177,0,52.8,5.145,73.868,15.437l-13.229,26.816
			c-20.339-9.547-40.676-14.321-61.016-14.321c-29.531,0-52.84,9.826-69.918,29.471c-17.09,19.645-25.634,46.542-25.634,80.698
			c0,35.144,8.233,62.272,24.716,81.429c16.477,19.155,39.968,28.731,70.475,28.731c18.743,0,40.119-3.365,64.127-10.095v27.479
			c-18.621,7.031-41.592,10.546-68.906,10.546c-39.581,0-70.047-12.015-91.423-36.037
			C515.395,287.237,504.708,253.093,504.708,208.841z"/>
	</g>
</g>
<path fill="#686868" d="M393.747,227.125c0,4.197-1.534,7.83-4.601,10.896c-3.067,3.068-6.703,4.603-10.899,4.603h-54.248
	c0,27.608-5.41,51.021-16.228,70.233l50.373,50.616c3.068,3.067,4.604,6.7,4.604,10.897c0,4.198-1.534,7.831-4.604,10.897
	c-2.904,3.067-6.537,4.603-10.896,4.603c-4.357,0-7.993-1.534-10.898-4.603l-47.953-47.71c-0.807,0.808-2.018,1.856-3.633,3.147
	c-1.613,1.292-5.004,3.593-10.171,6.902c-5.167,3.309-10.413,6.257-15.741,8.841c-5.328,2.582-11.947,4.925-19.858,7.022
	c-7.912,2.1-15.742,3.147-23.493,3.147V149.625h-31v216.997c-8.233,0-16.428-1.089-24.581-3.27
	c-8.153-2.18-15.178-4.844-21.07-7.991c-5.893-3.149-11.221-6.297-15.984-9.445c-4.763-3.147-8.274-5.771-10.535-7.872l-3.633-3.391
	l-44.319,50.133c-3.229,3.392-7.104,5.086-11.625,5.086c-3.875,0-7.346-1.292-10.414-3.875c-3.067-2.906-4.723-6.498-4.964-10.776
	c-0.243-4.278,1.009-8.034,3.753-11.263l48.922-54.976c-9.365-18.406-14.047-40.525-14.047-66.358h-54.25
	c-4.198,0-7.831-1.533-10.898-4.603c-3.067-3.066-4.602-6.699-4.602-10.896c0-4.199,1.534-7.83,4.602-10.898
	c3.067-3.066,6.7-4.602,10.898-4.602h54.249v-71.203L34.104,98.525c-3.066-3.067-4.602-6.7-4.602-10.899
	c0-4.197,1.535-7.83,4.602-10.897c3.068-3.068,6.701-4.601,10.899-4.601c4.197,0,7.83,1.533,10.897,4.601l41.897,41.898h204.405
	l41.896-41.898c3.069-3.068,6.7-4.601,10.899-4.601c4.196,0,7.83,1.533,10.897,4.601c3.067,3.067,4.603,6.7,4.603,10.897
	c0,4.199-1.534,7.832-4.603,10.899l-41.896,41.897v71.203h54.248c4.197,0,7.832,1.534,10.898,4.602
	C392.213,219.295,393.747,222.926,393.747,227.125L393.747,227.125z M277.5,87.626H122.501c0-21.473,7.549-39.759,22.645-54.854
	c15.095-15.097,33.38-22.644,54.854-22.644c21.475,0,39.759,7.547,54.854,22.644C269.951,47.867,277.5,66.153,277.5,87.626z"/>
</svg>
