<svg version="1.1" class="clearos-svg menu" width="100%" height="100%" preserveAspectRatio="xMinYMin" viewBox="0 0 400 400">
<path d="M91.666,184.647"/>
<path d="M123.245,247.805"/>
<path d="M91.666,184.647"/>
<path d="M123.245,247.805"/>
<path fill="#686868" d="M364.983,84.16L200.995,5.212L35.017,86.153l0.161,0.079v229.707l162.356,78.581v0.268l167.104-79.506
	l0.289-231.057l-1.608,0.761L364.983,84.16z M77.529,85.147l122.758-60.791l124.172,59.328L198.274,143.62L77.529,85.147z
	 M346.479,298.692l-130.216,62.795V180.568l130.216-62.799V298.692z M158.122,338.432c-9.411-2.471-18.149-5.31-37.195-13.937
	c-27.559-12.485-59.152-41.586-59.152-96.033v-31.145c0-54.896,31.593-54.923,59.152-42.438
	c14.116,6.395,27.784,14.604,37.643,20.638c2.017,1.138,3.585,2.521,3.585,4.537v11.427c0,1.344-0.448,2.262-2.688,1.247
	c-0.225-0.103-0.448-0.204-0.672-0.304c-8.066-4.327-24.647-13.183-37.643-19.07c-21.958-9.947-38.987-4.891-38.987,33.2v31.145
	c0,37.644,17.029,58.578,38.987,68.525c12.771,5.785,28.905,11.974,36.971,14.956c0.224,0.101,0.672,0.305,0.896,0.406
	c2.464,1.116,3.584,2.743,3.584,5.208v9.187C162.603,338.669,160.587,339.102,158.122,338.432z"/>
</svg>
