<?xml version="1.0" encoding="utf-8"?>
<!-- Generator: Adobe Illustrator 15.0.0, SVG Export Plug-In . SVG Version: 6.00 Build 0)  -->
<!DOCTYPE svg PUBLIC "-//W3C//DTD SVG 1.1//EN" "http://www.w3.org/Graphics/SVG/1.1/DTD/svg11.dtd">
<svg version="1.1"
	 id="Layer_1" xmlns:cc="http://creativecommons.org/ns#" xmlns:svg="http://www.w3.org/2000/svg" xmlns:rdf="http://www.w3.org/1999/02/22-rdf-syntax-ns#" xmlns:dc="http://purl.org/dc/elements/1.1/"
	 xmlns="http://www.w3.org/2000/svg" xmlns:xlink="http://www.w3.org/1999/xlink" x="0px" y="0px" width="100%" height="100%" preserveAspectRatio="xMinYMin" 
	 viewBox="0 0 400 400" enable-background="new 0 0 400 400" xml:space="preserve">
<g id="Layer_7" transform="translate(0,1.3329999)" display="none">
	<g id="g4" display="inline">
		<path id="path6" d="M81.984,71.004h33.076l42.445,165.935c5.829,23.278,10.082,44.354,12.758,63.213
			c3.279-22.418,8.137-44.35,14.579-65.781l47.737-163.36h32.802l50.611,165.093c5.947,18.916,10.974,40.271,15.063,64.063
			c2.355-17.393,6.816-38.59,13.395-63.578L387.213,71.01h33.076l-71.85,268.657h-30.875l-53.406-180.144
			c-2.361-7.982-5.326-17.987-8.897-30.021c-3.565-12.034-5.424-19.282-5.536-21.74c-2.69,16.171-6.975,33.876-12.852,53.108
			l-52.494,178.801h-30.834L81.984,71.004z"/>
	</g>
</g>
<g id="Layer_3" transform="translate(0,1.3329999)" display="none">
	<g id="g9" display="inline">
		<path id="path11" d="M150.803,339.665V71.004h35.279l146.441,224.558h1.449c-0.24-3.429-0.793-14.086-1.635-31.971
			c-0.604-13.966-0.91-24.811-0.91-32.519c0-2.205,0-4.163,0-5.868V71.02h28.854v268.657H325L178.18,114.186h-1.471
			c1.958,26.463,2.939,50.718,2.939,72.771v152.708H150.803L150.803,339.665z"/>
	</g>
</g>
<g id="Layer_4" transform="translate(0,1.3329999)" display="none">
	<g id="g14" display="inline">
		<path id="path16" d="M170.766,333.886v-29.961c11.024,4.66,23.029,8.351,36.019,11.037c12.984,2.693,25.847,4.05,38.593,4.05
			c20.862,0,36.57-3.952,47.123-11.874c10.56-7.918,15.837-18.916,15.837-33.047c0-9.324-1.871-16.953-5.613-22.913
			c-3.746-5.952-10.008-11.448-18.781-16.474c-8.773-5.026-22.115-10.742-40.039-17.121c-25.032-8.958-42.854-19.574-53.447-31.845
			c-10.598-12.266-15.897-28.276-15.897-48.037c0-20.724,7.752-37.221,23.263-49.481c15.51-12.261,36.021-18.392,61.547-18.392
			c26.635,0,51.132,4.9,73.481,14.7l-9.625,27.221c-22.146-9.329-43.681-13.989-64.599-13.989c-16.569,0-29.522,3.563-38.849,10.676
			c-9.322,7.118-13.985,16.995-13.985,29.637c0,9.324,1.716,16.963,5.151,22.918c3.435,5.953,9.234,11.411,17.397,16.381
			c8.156,4.971,20.646,10.46,37.453,16.474c28.229,10.065,47.579,20.863,58.062,32.397c10.476,11.539,15.715,26.511,15.715,44.91
			c0,23.556-8.561,41.927-25.658,55.101c-17.104,13.173-40.321,19.772-69.645,19.772
			C212.413,346.036,187.916,341.985,170.766,333.886L170.766,333.886z"/>
	</g>
</g>
<g id="Layer_5" transform="translate(0,1.3329999)" display="none">
	<g id="g19" display="inline">
		<path id="path21" d="M142.218,71.009h33.077l61.742,173.833c7.105,19.97,12.738,39.392,16.908,58.259
			c4.41-19.851,10.156-39.632,17.271-59.354l61.374-172.74h33.623l-96.844,268.659h-30.861L142.218,71.009z"/>
	</g>
</g>
<g id="Layer_6" transform="translate(0,1.3329999)" display="none">
	<g id="g24" display="inline">
		<path id="path26" d="M154.708,208.841c0-27.668,5.116-51.908,15.355-72.721c10.24-20.811,25.124-36.85,44.653-48.113
			c19.528-11.26,42.532-16.895,68.989-16.895c28.177,0,52.8,5.145,73.868,15.437l-13.229,26.816
			c-20.339-9.547-40.676-14.321-61.016-14.321c-29.531,0-52.84,9.826-69.918,29.471c-17.09,19.645-25.634,46.542-25.634,80.698
			c0,35.144,8.237,62.272,24.716,81.429c16.479,19.155,39.968,28.731,70.479,28.731c18.739,0,40.115-3.365,64.123-10.095v27.479
			c-18.621,7.031-41.592,10.546-68.904,10.546c-39.582,0-70.045-12.015-91.421-36.036
			C165.395,287.237,154.708,253.093,154.708,208.841z"/>
	</g>
</g>
<path id="path28" fill="#AA0707" d="M91.666,184.647"/>
<path id="path30" fill="#AA0707" d="M123.245,247.805"/>
<path id="path32" fill="#AA0707" d="M91.666,184.647"/>
<path id="path34" fill="#AA0707" d="M123.245,247.805"/>
<g>
	<path fill="#686868" d="M270.948,213.416h-6.625c-16.367,16.691-39.072,27.045-64.181,27.045
		c-25.107,0-47.814-10.354-64.182-27.045h-6.829c-81.447,0-74.74,127.445-74.74,127.445c0,23.811,19.306,43.113,43.119,43.113
		h202.184c23.813,0,43.119-19.305,43.119-43.113C342.813,340.861,349.521,213.416,270.948,213.416z"/>
	<ellipse fill="#686868" cx="200.144" cy="149.34" rx="79.664" ry="80.402"/>
	<path fill="#686868" d="M78.642,124.969c30,0,54.324-24.322,54.324-54.326s-24.324-54.324-54.324-54.324
		c-30.006,0-54.328,24.32-54.328,54.324S48.636,124.969,78.642,124.969z"/>
	<path fill="#686868" d="M122.798,200.014c-11.608-13.969-18.609-31.969-18.609-51.631c0-4.524,0.389-8.956,1.101-13.277
		c-8.14,3.77-14.163,5.484-24.545,5.484c-21.817,0-25.872-4.551-41.442-11.978l-11.26-5.749
		c-28.268,2.155-24.009,73.995-24.009,73.735c0.737,12.42,9.487,22.36,23.056,28.006c0,0,2.415,0.688,3.243,0.785
		c10.56,1.26,42.541,0,42.541,0C83.87,210.6,99.787,200.194,122.798,200.014z"/>
	<path fill="#686868" d="M321.129,124.969c30.006,0,54.328-24.322,54.328-54.326s-24.322-54.324-54.328-54.324
		c-30,0-54.324,24.32-54.324,54.324S291.129,124.969,321.129,124.969z"/>
	<path fill="#686868" d="M371.729,122.864l-11.26,5.749c-15.57,7.427-19.625,11.978-41.442,11.978
		c-10.382,0-16.405-1.715-24.545-5.484c0.712,4.321,1.101,8.753,1.101,13.277c0,19.662-7.001,37.662-18.609,51.631
		c23.011,0.18,38.928,10.585,49.925,25.376c0,0,31.981,1.26,42.541,0c0.828-0.098,3.243-0.785,3.243-0.785
		c13.568-5.646,22.318-15.586,23.056-28.006C395.737,196.859,399.996,125.019,371.729,122.864z"/>
</g>
</svg>
