<svg version="1.1" class="clearos-svg menu" width="100%" height="100%" preserveAspectRatio="xMinYMin" viewBox="0 0 400 400">
<path d="M91.666,184.647"/>
<path d="M123.245,247.805"/>
<path d="M91.666,184.647"/>
<path d="M123.245,247.805"/>
<path fill="#686868" d="M364.983,84.16L200.995,5.212L35.017,86.153l0.161,0.079v229.707l162.356,78.581v0.268l167.104-79.506
	l0.289-231.057l-1.608,0.761L364.983,84.16z M77.529,85.147l122.758-60.791l124.172,59.328L198.274,143.62L77.529,85.147z
	 M346.479,298.692l-130.216,62.795V180.568l130.216-62.799V298.692z M164.386,345.165c-11.2-3.408-23.999-7.784-45.484-17.775
	c-28.571-13.285-59.198-45.977-59.198-97.504v-30.15c0-54.676,31.999-55.322,61.255-41.718
	c21.256,9.884,34.741,17.954,43.427,23.343c2.057,1.182,3.886,2.932,3.886,5.182v11.251c0,1.574-0.914,1.824-2.972,0.868
	c-0.228-0.106-0.686-0.319-0.914-0.426c-13.485-7.396-23.999-12.734-43.427-21.768c-21.257-9.884-40.456-7.562-40.456,32.94v30.15
	c0,37.127,17.142,59.723,38.399,69.606c13.942,6.483,23.313,9.94,28.799,12.042v-64.352c0-2.476,1.6-3.757,4.114-2.588l12.342,5.739
	c2.286,1.063,4.343,4.045,4.343,6.52v75.603C168.5,344.603,166.9,345.884,164.386,345.165z"/>
</svg>
