<svg version="1.1" class="clearos-svg menu" width="100%" height="100%" preserveAspectRatio="xMinYMin" viewBox="0 0 400 400">
<path d="M91.666,184.647"/>
<path d="M123.245,247.805"/>
<path d="M91.666,184.647"/>
<path d="M123.245,247.805"/>
<path fill="#686868" d="M364.983,84.16L200.995,5.212L35.017,86.153l0.161,0.079v229.707l162.356,78.581v0.268l167.104-79.506
	l0.289-231.057l-1.608,0.761L364.983,84.16z M77.529,85.147l122.758-60.791l124.172,59.328L198.274,143.62L77.529,85.147z
	 M346.479,298.692l-130.216,62.795V180.568l130.216-62.799V298.692z M167.211,350.451l-13.6-6.398
	c-3.509-1.651-5.922-4.103-7.02-6.812l-67.78-160.647c-0.219-0.542-0.439-0.864-0.658-0.967c-0.219-0.104-0.219,0.116-0.219,0.555
	v128.103c0,2.193-1.755,3.343-3.948,2.311l-11.407-5.366c-2.193-1.031-3.949-2.296-3.949-4.489V142.533
	c0-3.51,2.852-4.801,6.362-3.149l12.064,5.675c6.142,2.889,7.239,4.502,8.994,8.618l67.342,159.782l0.439,0.865
	c0.22,0.103,0.22-0.336,0.22-0.555V185.446c0-2.193,1.754-3.343,3.948-2.311l11.626,5.469c2.413,1.135,3.949,3.832,3.949,6.025
	v152.452C173.573,350.592,170.721,352.102,167.211,350.451z"/>
</svg>
