<svg version="1.1" class="clearos-svg clearfoundation" width="100%" height="100%" viewBox="0 0 400 400" preserveAspectRatio="xMinYMin">
<g display="none">
	<g display="inline">
		<path d="M81.984,71.004h33.076l42.445,165.935c5.829,23.278,10.082,44.354,12.758,63.213
			c3.279-22.418,8.137-44.35,14.579-65.781l47.737-163.36h32.802l50.611,165.093c5.947,18.916,10.974,40.271,15.063,64.063
			c2.355-17.393,6.816-38.59,13.393-63.578L387.213,71.01h33.076l-71.85,268.657h-30.874l-53.407-180.144
			c-2.361-7.982-5.326-17.987-8.897-30.021c-3.565-12.034-5.424-19.282-5.536-21.74c-2.69,16.171-6.975,33.876-12.852,53.108
			l-52.494,178.801h-30.834L81.984,71.004z"/>
	</g>
</g>
<g display="none">
	<g display="inline">
		<path d="M150.803,339.665V71.004h35.279l146.442,224.558h1.449c-0.241-3.429-0.792-14.086-1.634-31.971
			c-0.603-13.966-0.91-24.811-0.91-32.519c0-2.205,0-4.163,0-5.868V71.02h28.854v268.657H325L178.18,114.186h-1.471
			c1.958,26.463,2.939,50.718,2.939,72.771v152.708H150.803L150.803,339.665z"/>
	</g>
</g>
<g display="none">
	<g display="inline">
		<path d="M170.766,333.886v-29.961c11.024,4.66,23.029,8.348,36.019,11.037c12.984,2.693,25.847,4.05,38.593,4.05
			c20.862,0,36.57-3.952,47.123-11.874c10.56-7.918,15.837-18.916,15.837-33.047c0-9.324-1.871-16.953-5.613-22.913
			c-3.746-5.952-10.008-11.448-18.781-16.474c-8.773-5.026-22.115-10.742-40.039-17.121c-25.032-8.958-42.854-19.574-53.447-31.845
			c-10.598-12.266-15.897-28.276-15.897-48.037c0-20.724,7.752-37.221,23.263-49.481c15.51-12.261,36.021-18.392,61.547-18.392
			c26.635,0,51.132,4.9,73.483,14.7l-9.626,27.221c-22.146-9.329-43.68-13.989-64.598-13.989c-16.569,0-29.522,3.563-38.848,10.676
			c-9.323,7.118-13.986,16.995-13.986,29.637c0,9.324,1.716,16.963,5.152,22.918c3.434,5.953,9.233,11.411,17.397,16.381
			c8.155,4.971,20.646,10.46,37.452,16.474c28.229,10.065,47.579,20.863,58.061,32.397c10.475,11.539,15.714,26.511,15.714,44.91
			c0,23.556-8.559,41.927-25.658,55.101c-17.104,13.173-40.321,19.772-69.645,19.772
			C212.413,346.036,187.916,341.985,170.766,333.886L170.766,333.886z"/>
	</g>
</g>
<g display="none">
	<g display="inline">
		<path d="M142.218,71.009h33.077l61.742,173.833c7.105,19.97,12.738,39.392,16.908,58.259
			c4.41-19.851,10.156-39.632,17.271-59.354l61.374-172.74h33.623l-96.844,268.659h-30.861L142.218,71.009z"/>
	</g>
</g>
<g display="none">
	<g display="inline">
		<path d="M154.708,208.841c0-27.668,5.116-51.908,15.355-72.721c10.24-20.811,25.124-36.85,44.653-48.113
			c19.528-11.26,42.532-16.895,68.989-16.895c28.177,0,52.8,5.145,73.868,15.437l-13.229,26.816
			c-20.339-9.547-40.676-14.321-61.016-14.321c-29.531,0-52.84,9.826-69.918,29.471c-17.09,19.645-25.634,46.542-25.634,80.698
			c0,35.144,8.237,62.272,24.716,81.429c16.479,19.155,39.968,28.731,70.479,28.731c18.739,0,40.115-3.365,64.123-10.095v27.479
			c-18.621,7.031-41.592,10.546-68.904,10.546c-39.582,0-70.045-12.015-91.421-36.036
			C165.395,287.237,154.708,253.093,154.708,208.841z"/>
	</g>
</g>
<path d="M91.666,184.647"/>
<path d="M123.245,247.805"/>
<path d="M91.666,184.647"/>
<path d="M123.245,247.805"/>
<path fill="#686868" d="M384.452,221.512l-90.501-43.57l0.161-129.3l-0.9,0.426l0.933-0.463L202.21,4.345l-93.05,45.377l0.09,0.045
	v127.799l-0.651-0.314l-93.051,45.377l0.09,0.045v128.777l91.02,44.054v0.15l92.905-44.202l91.016,44.052v0.15l93.681-44.572
	l0.162-129.534l-0.9,0.426L384.452,221.512z M283.771,168.875l-73.001,35.203V102.652l73.001-35.207V168.875z M201.813,15.077
	l69.611,33.261l-70.74,33.601l-67.692-32.782L201.813,15.077z M39.38,222.065l68.82-34.081l69.613,33.262l-70.741,33.601
	L39.38,222.065z M190.158,341.782l-73,35.203V275.56l73-35.206V341.782z M223.301,222.065l68.821-34.081l69.612,33.262
	l-70.741,33.601L223.301,222.065z M374.078,341.782l-73,35.203V275.56l73-35.206V341.782z"/>
</svg>
