<svg version="1.1" class="clearos-svg menu" width="100%" height="100%" preserveAspectRatio="xMinYMin" viewBox="0 0 400 400">
<path d="M91.666,184.647"/>
<path d="M123.245,247.805"/>
<path d="M91.666,184.647"/>
<path d="M123.245,247.805"/>
<path fill="#686868" d="M364.983,84.16L200.995,5.212L35.017,86.153l0.161,0.079v229.707l162.356,78.581v0.268l167.104-79.506
	l0.289-231.057l-1.608,0.761L364.983,84.16z M77.529,85.147l122.758-60.791l124.172,59.328L198.274,143.62L77.529,85.147z
	 M346.479,298.692l-130.216,62.795V180.568l130.216-62.799V298.692z M169.181,341.393l-14.028-5.717
	c-2.63-1.071-3.946-1.608-5.7-5.173l-39.236-81.309c-0.657-0.267-1.315-0.535-1.973-0.804c-1.315-0.535-2.411-0.982-3.727-1.518
	c-7.233-2.948-12.494-5.311-24.111-10.483v64.444c0,2.191-1.534,3.759-3.946,2.776l-11.836-4.824
	c-2.192-0.894-3.946-3.58-3.946-5.991V139.358c0-3.069,1.315-3.849,5.261-2.679c9.426,2.744,25.865,8.786,38.578,13.966
	c34.633,14.113,61.375,36.626,61.375,72.136v1.535c0,24.55-14.467,33.121-34.414,30.254l39.894,82.892
	c0.438,0.836,0.658,1.584,0.658,2.24C172.031,341.239,170.935,342.106,169.181,341.393z M146.166,214.743
	c0-21.919-14.248-34.958-41.647-46.123c-6.794-2.769-18.851-7.681-24.111-9.168v60.061c9.645,4.149,19.07,8.209,24.111,10.263
	c26.961,10.986,41.647,10.176,41.647-13.497V214.743z"/>
</svg>
