<svg version="1.1" class="clearos-svg menu" width="100%" height="100%" preserveAspectRatio="xMinYMin" viewBox="0 0 400 400">
<path d="M91.666,184.647"/>
<path d="M123.245,247.805"/>
<path d="M91.666,184.647"/>
<path d="M123.245,247.805"/>
<path fill="#686868" d="M364.983,84.16L200.995,5.212L35.017,86.153l0.161,0.079v229.707l162.356,78.581v0.268l167.104-79.506
	l0.289-231.057l-1.608,0.761L364.983,84.16z M77.529,85.147l122.758-60.791l124.172,59.328l-126.184,59.937L77.529,85.147z
	 M346.479,298.692l-130.216,62.795V180.568l130.216-62.799V298.692z M110.106,325.012c-16.474-8.392-28.711-16.277-39.064-23.2
	c-4.001-2.743-4.472-3.925-4.472-6.517v-9.414c0-2.586,1.882-2.804,4.001-1.725c0.234,0.119,0.471,0.24,0.706,0.361
	c10.823,6.457,28.002,15.681,38.829,21.198c28.24,14.387,35.771,6.93,35.771-9.544c0-11.77-6.823-21.836-28.238-45.928
	l-22.828-25.512C73.158,200.521,62.335,183,62.335,164.175c0-28.477,20.474-31.224,56.243-12.997
	c13.887,7.075,32.006,17.719,40.951,23.686c2.352,1.674,3.999,3.688,3.999,6.04v10.121c0,2.351-1.647,2.926-3.999,1.727
	c-0.235-0.12-0.235-0.12-0.474-0.24c-10.354-5.983-26.827-15.08-40.478-22.038c-24.24-12.35-34.594-12.449-34.594,4.732
	c0,11.063,7.768,21.607,25.651,41.548l21.653,23.97c27.3,30.155,36.947,48.011,36.947,66.841
	C168.236,330.157,156.47,348.632,110.106,325.012z"/>
</svg>
