<?xml version="1.0" encoding="utf-8"?>
<!-- Generator: Adobe Illustrator 15.0.0, SVG Export Plug-In . SVG Version: 6.00 Build 0)  -->
<!DOCTYPE svg PUBLIC "-//W3C//DTD SVG 1.1//EN" "http://www.w3.org/Graphics/SVG/1.1/DTD/svg11.dtd">
<svg version="1.1"
	 id="Layer_1" xmlns:svg="http://www.w3.org/2000/svg" xmlns:rdf="http://www.w3.org/1999/02/22-rdf-syntax-ns#" xmlns:cc="http://creativecommons.org/ns#" xmlns:dc="http://purl.org/dc/elements/1.1/"
	 xmlns="http://www.w3.org/2000/svg" xmlns:xlink="http://www.w3.org/1999/xlink" x="0px" y="0px" width="100%" height="100%" preserveAspectRatio="xMinYMin"
	 viewBox="0 0 400 400" enable-background="new 0 0 400 400" xml:space="preserve">
<g id="Layer_7" transform="translate(0,1.3329999)" display="none">
	<g id="g4" display="inline">
		<path id="path6" d="M431.984,71.004h33.073l42.445,165.935c5.829,23.278,10.082,44.354,12.758,63.213
			c3.279-22.418,8.14-44.35,14.579-65.778l47.737-163.36h32.802l50.611,165.093c5.947,18.916,10.974,40.271,15.063,64.063
			c2.355-17.394,6.816-38.59,13.396-63.578L737.213,71.01h33.076l-71.85,268.657h-30.874l-53.407-180.144
			c-2.361-7.982-5.326-17.987-8.897-30.021c-3.563-12.034-5.424-19.282-5.536-21.74c-2.688,16.171-6.975,33.876-12.852,53.108
			l-52.494,178.801h-30.834L431.984,71.004z"/>
	</g>
</g>
<g id="Layer_3" transform="translate(0,1.3329999)" display="none">
	<g id="g9" display="inline">
		<path id="path11" d="M500.803,339.665V71.004h35.279l146.442,224.558h1.446c-0.238-3.429-0.792-14.086-1.634-31.971
			c-0.603-13.966-0.91-24.811-0.91-32.519c0-2.205,0-4.163,0-5.868V71.02h28.854v268.657H675L528.18,114.186h-1.471
			c1.958,26.463,2.939,50.718,2.939,72.771v152.708H500.803L500.803,339.665z"/>
	</g>
</g>
<g id="Layer_4" transform="translate(0,1.3329999)" display="none">
	<g id="g14" display="inline">
		<path id="path16" d="M520.766,333.886v-29.961c11.024,4.66,23.029,8.351,36.021,11.037c12.981,2.693,25.847,4.05,38.593,4.05
			c20.862,0,36.57-3.952,47.123-11.874c10.562-7.918,15.837-18.916,15.837-33.047c0-9.324-1.871-16.953-5.613-22.913
			c-3.744-5.952-10.008-11.448-18.778-16.474c-8.773-5.026-22.115-10.742-40.039-17.121c-25.032-8.958-42.854-19.574-53.447-31.845
			c-10.598-12.266-15.896-28.276-15.896-48.037c0-20.724,7.753-37.221,23.265-49.481c15.51-12.261,36.021-18.392,61.547-18.392
			c26.635,0,51.132,4.9,73.481,14.7l-9.625,27.221c-22.146-9.329-43.682-13.989-64.6-13.989c-16.568,0-29.521,3.563-38.848,10.676
			c-9.323,7.118-13.986,16.995-13.986,29.637c0,9.324,1.716,16.963,5.152,22.918c3.434,5.953,9.23,11.411,17.396,16.381
			c8.155,4.971,20.646,10.46,37.452,16.474c28.229,10.065,47.579,20.863,58.063,32.397c10.475,11.539,15.714,26.511,15.714,44.91
			c0,23.556-8.562,41.927-25.658,55.101c-17.104,13.173-40.321,19.772-69.646,19.772
			C562.413,346.036,537.916,341.985,520.766,333.886L520.766,333.886z"/>
	</g>
</g>
<g id="Layer_5" transform="translate(0,1.3329999)" display="none">
	<g id="g19" display="inline">
		<path id="path21" d="M492.218,71.009h33.077l61.742,173.833c7.104,19.97,12.738,39.392,16.908,58.259
			c4.41-19.851,10.153-39.632,17.271-59.354l61.374-172.74h33.623l-96.844,268.659h-30.861L492.218,71.009z"/>
	</g>
</g>
<g id="Layer_6" transform="translate(0,1.3329999)" display="none">
	<g id="g24" display="inline">
		<path id="path26" d="M504.708,208.841c0-27.668,5.116-51.908,15.354-72.721c10.238-20.811,25.125-36.85,44.651-48.113
			c19.528-11.26,42.532-16.895,68.989-16.895c28.177,0,52.8,5.145,73.868,15.437l-13.229,26.816
			c-20.339-9.547-40.676-14.321-61.016-14.321c-29.531,0-52.84,9.826-69.918,29.471c-17.09,19.645-25.634,46.542-25.634,80.698
			c0,35.144,8.234,62.272,24.716,81.429c16.479,19.155,39.968,28.731,70.479,28.731c18.739,0,40.115-3.365,64.123-10.095v27.479
			c-18.621,7.031-41.592,10.546-68.901,10.546c-39.582,0-70.047-12.015-91.422-36.036
			C515.395,287.237,504.708,253.093,504.708,208.841z"/>
	</g>
</g>
<path id="path28" fill="#AA0707" d="M441.666,184.647"/>
<path id="path30" fill="#AA0707" d="M473.245,247.805"/>
<path id="path32" fill="#AA0707" d="M441.666,184.647"/>
<path id="path34" fill="#AA0707" d="M473.245,247.805"/>
<g>
	<path fill="#757575" d="M366.117,92.359c-0.785-2.189-2.734-4.027-2.734-4.027L207.658,11.867c0,0-3.471-1.061-7.617-1.229
		c-4.146-0.168-8.101,1.036-8.101,1.036L37.556,86.658c0,0-2.125,2.077-2.644,3.245c-0.57,1.284-1.397,4.052-1.397,4.052
		l0.627,206.569c0,0,2.147,6.993,3.25,8.375c1.996,2.498,6.5,6.25,6.5,6.251l139.469,68.153c0,0,9.449,5.882,18.513,6.074
		c4.629,0.099,17.646-7.328,17.646-7.328l138.563-67.792c0,0,2.699-1.543,5.207-5.207c2.41-3.085,3.084-7.616,3.084-7.616
		l-0.002-206.162C366.371,95.273,366.893,94.523,366.117,92.359z M181.945,279.783l-57.13-28.261v59.91l-16.181-8.002v-59.912
		l-57.131-28.262V200.09l57.131,28.263v-59.407l16.181,8.002v59.407l57.13,28.26V279.783z M194.392,142.273
		c-1.072-0.313-110.375-54.25-110.375-54.25s-2.125-2.125,0.625-4.625l108.125-52.75c0,0,8.376-3.625,14.501-0.375
		s106.875,52.25,106.875,52.25s4.625,3.5,0.75,5.875s-108.75,53.875-108.75,53.875S200.394,144.03,194.392,142.273z
		 M349.268,289.524c0,0-0.5,6.5-7,10.5s-115.25,55.5-115.25,55.5s-8.75,6.125-10.75-2.75s-0.125-166.626-0.125-166.626
		s0.129-7.516,10.75-11.125l112.875-54.5c0,0,8.125-3.75,9.5,3.25S349.268,289.524,349.268,289.524z"/>
	<path fill="#4A4A4A" d="M365.779,94.861c-1-7.167-8.166-5.501-8.166-5.501l-148.5,71.333c-10.332,5.332-9.666,14.501-9.666,14.501
		s-0.834,198.501,0.334,208.334c1.166,9.833,7.832,4.167,7.832,4.167s133.502-65.667,144.834-70.334
		c11.334-4.667,13.168-16.001,13.168-16.001S366.779,102.027,365.779,94.861z M349.268,289.524c0,0-0.5,6.5-7,10.5
		s-115.25,55.5-115.25,55.5s-8.75,6.125-10.75-2.75s-0.125-166.626-0.125-166.626s0.129-7.516,10.75-11.125l112.875-54.5
		c0,0,8.125-3.75,9.5,3.25S349.268,289.524,349.268,289.524z"/>
	<path fill="#686868" d="M199.791,385.161c0,0,0.166-200.501-0.5-211.001s-10.5-14.668-10.5-14.668s-140.834-72-147.834-71.832
		c-7,0.166-7.5,6.666-7.5,6.666l0.166,204.335c1.168,13,9,15,9,15s139.668,66.5,147.334,71.5s13.5,3.166,13.5,3.166L199.791,385.161
		z M181.945,279.783l-57.13-28.261v59.91l-16.181-8.002v-59.912l-57.131-28.262V200.09l57.131,28.263v-59.407l16.181,8.002v59.407
		l57.13,28.26V279.783z"/>
</g>
</svg>
