<svg version="1.1" class="clearos-svg menu" width="100%" height="100%" preserveAspectRatio="xMinYMin" viewBox="0 0 400 400">
<path d="M441.666,184.647"/>
<path d="M473.245,247.805"/>
<path d="M441.666,184.647"/>
<path d="M473.245,247.805"/>
<g>
	<path fill="#757575" d="M366.117,92.359c-0.785-2.189-2.734-4.027-2.734-4.027L207.658,11.867c0,0-3.471-1.061-7.617-1.229
		c-4.146-0.168-8.101,1.036-8.101,1.036L37.556,86.658c0,0-2.125,2.077-2.644,3.245c-0.57,1.284-1.397,4.052-1.397,4.052
		l0.627,206.569c0,0,2.147,6.993,3.25,8.375c1.996,2.498,6.5,6.25,6.5,6.251l139.469,68.153c0,0,9.449,5.882,18.513,6.074
		c4.629,0.099,17.646-7.328,17.646-7.328l138.563-67.792c0,0,2.699-1.543,5.207-5.207c2.41-3.085,3.084-7.616,3.084-7.616
		l-0.002-206.162C366.371,95.273,366.893,94.523,366.117,92.359z M181.945,279.783l-57.13-28.261v59.91l-16.181-8.002v-59.912
		l-57.131-28.262V200.09l57.131,28.263v-59.407l16.181,8.002v59.407l57.13,28.26V279.783z M194.392,142.273
		c-1.072-0.313-110.375-54.25-110.375-54.25s-2.125-2.125,0.625-4.625l108.125-52.75c0,0,8.376-3.625,14.501-0.375
		s106.875,52.25,106.875,52.25s4.625,3.5,0.75,5.875s-108.75,53.875-108.75,53.875S200.394,144.03,194.392,142.273z
		 M349.268,289.524c0,0-0.5,6.5-7,10.5s-115.25,55.5-115.25,55.5s-8.75,6.125-10.75-2.75s-0.125-166.626-0.125-166.626
		s0.129-7.516,10.75-11.125l112.875-54.5c0,0,8.125-3.75,9.5,3.25S349.268,289.524,349.268,289.524z"/>
	<path fill="#4A4A4A" d="M365.779,94.861c-1-7.167-8.166-5.501-8.166-5.501l-148.5,71.333c-10.332,5.332-9.666,14.501-9.666,14.501
		s-0.834,198.501,0.334,208.334c1.166,9.833,7.832,4.167,7.832,4.167s133.502-65.667,144.834-70.334
		c11.334-4.667,13.168-16.001,13.168-16.001S366.779,102.027,365.779,94.861z M349.268,289.524c0,0-0.5,6.5-7,10.5
		s-115.25,55.5-115.25,55.5s-8.75,6.125-10.75-2.75s-0.125-166.626-0.125-166.626s0.129-7.516,10.75-11.125l112.875-54.5
		c0,0,8.125-3.75,9.5,3.25S349.268,289.524,349.268,289.524z"/>
	<path fill="#686868" d="M199.791,385.161c0,0,0.166-200.501-0.5-211.001s-10.5-14.668-10.5-14.668s-140.834-72-147.834-71.832
		c-7,0.166-7.5,6.666-7.5,6.666l0.166,204.335c1.168,13,9,15,9,15s139.668,66.5,147.334,71.5s13.5,3.166,13.5,3.166L199.791,385.161
		z M181.945,279.783l-57.13-28.261v59.91l-16.181-8.002v-59.912l-57.131-28.262V200.09l57.131,28.263v-59.407l16.181,8.002v59.407
		l57.13,28.26V279.783z"/>
</g>
</svg>
